<svg width="451" height="554" viewBox="0 0 451 554" fill="none" xmlns="http://www.w3.org/2000/svg">
<path d="M359.5 305C396.227 305 426 298.284 426 290C426 281.716 396.227 275 359.5 275C322.773 275 293 281.716 293 290C293 298.284 322.773 305 359.5 305Z" fill="#12AFCB"/>
<path d="M149.292 553.938C217.388 553.938 272.591 541.277 272.591 525.659C272.591 510.042 217.388 497.381 149.292 497.381C81.1956 497.381 25.9926 510.042 25.9926 525.659C25.9925 541.277 81.1956 553.938 149.292 553.938Z" fill="#12AFCB"/>
<path fill-rule="evenodd" clip-rule="evenodd" d="M201.563 431.253C203.13 434.21 203.502 436.864 203.34 439.618C203.053 444.403 201.461 446.302 196.694 447.329C191.641 448.414 186.564 449.36 181.512 450.406C175.63 451.619 169.756 452.882 163.892 454.115C162.609 452.227 161.607 450.448 160.29 448.925C158.759 447.127 157.15 445.277 155.23 443.919C149.849 440.126 144.337 440.354 138.936 444.186C136.034 446.242 134.077 448.977 132.732 452.16C132.269 453.251 132.01 454.408 131.596 455.767C130.63 455.909 129.637 456.217 128.668 456.171C120.051 455.748 111.435 455.325 102.833 454.764C100.612 454.621 98.3933 454.132 96.2149 453.624C94.3964 453.2 92.5315 452.704 91.0723 451.067C90.6981 448.225 92.0333 445.575 92.4944 442.952C93.8475 441.658 95.2664 442.275 96.5881 442.344C100.828 442.544 104.817 441.853 108.418 439.467C114.142 435.677 115.68 428.13 111.752 422.483C109.276 418.919 106.047 416.592 101.373 416.979C100.556 417.048 99.7173 416.927 98.8944 416.896C98.9894 412.785 102.368 398.523 105.262 389.86C106.46 389.589 107.786 389.273 109.102 388.976C112.149 388.28 115.07 387.282 117.63 385.47C120.904 383.16 122.744 380.134 122.79 376.021C122.848 371.069 121.832 366.511 118.069 362.997C116.61 361.627 114.772 360.667 112.83 359.338C113.11 354.998 114.166 350.656 116.16 346.38C120.293 346.041 124.174 346.909 128.238 347.091C129.092 348.389 129.908 349.666 130.774 350.905C132.049 352.734 133.477 354.409 135.495 355.533C139.445 357.729 143.553 357.528 147.089 354.783C149.423 352.972 151.319 350.789 152.25 347.936C152.56 346.988 152.939 346.053 153.267 345.146C157.104 343.777 160.793 342.472 164.63 341.103C166.45 343.595 166.862 346.488 168.504 348.993C167.318 349.749 166.465 350.261 165.649 350.833C162.265 353.188 160.132 356.451 159.008 360.285C156.837 367.7 161.875 376.177 169.448 378.292C172.263 379.08 174.919 378.626 177.569 377.806C178.859 377.41 180.06 376.753 181.536 376.106C184.332 380.573 185.588 385.525 187.424 390.213C189.277 394.96 190.98 399.772 192.832 404.796C192.135 405.096 191.581 405.461 190.989 405.567C184.609 406.722 181.907 411.278 180.474 416.812C179.362 421.082 180.405 424.929 183.966 427.832C185.555 429.128 187.163 430.454 188.951 431.441C192.257 433.277 195.759 433.784 199.361 432.179C199.969 431.915 200.586 431.671 201.563 431.253ZM160.841 404.611C161.109 397.965 157.851 392.502 152.175 389.499C147.347 386.934 141.827 387.923 137.966 391.734C132.74 396.897 132.83 407.334 135.835 411.71C137.752 414.492 139.983 416.722 143.591 417.036C149.076 417.519 153.779 415.847 157.596 411.896C159.708 409.711 160.671 407.047 160.841 404.611Z" fill="#6CDCF2"/>
<path fill-rule="evenodd" clip-rule="evenodd" d="M119.207 260.018C126.488 257.573 133.538 253.724 141.995 255.803C142.754 257.809 143.418 259.723 144.191 261.592C145.371 264.405 146.53 267.248 147.889 269.989C149.412 273.072 151.549 275.724 154.447 277.722C155.996 278.789 157.554 279.876 159.032 281.03C169.765 289.365 187.438 287.647 197.708 278.48C199.474 276.905 200.901 274.941 202.489 273.142C203.766 273.368 203.376 274.342 203.318 275.091C202.658 283.295 200.688 291.122 196.89 298.506C192.203 307.616 187.107 316.404 179.853 323.864C169.13 334.893 156.062 340.968 140.636 342.168C123.232 343.51 106.691 340.178 90.8387 333.094C79.7821 328.148 69.5056 322.015 60.1594 314.355C48.995 305.212 41.2913 293.767 36.3964 280.399C36.1741 279.788 36.1702 279.105 36.0322 278.339C39.469 277.459 42.777 276.615 46.4218 275.684C46.8058 276.43 47.3244 277.25 47.6739 278.134C52.1835 289.479 60.4354 297.286 71.3713 302.573C95.8385 311.426 115.423 295.311 118.264 277.062C119.052 271.999 119.75 266.991 118.951 261.878C118.9 261.401 119.086 260.884 119.207 260.018ZM147.616 288.027C146.079 288.197 143.528 288.496 140.967 288.766C134.821 289.435 128.691 290.183 122.532 290.673C120.781 290.815 119.623 291.345 118.765 292.786C117.875 294.285 117.296 295.846 117.408 297.591C117.736 302.716 118.738 307.649 121.514 312.115C124.419 316.784 128.473 319.33 134.129 319.711C142.27 320.264 149.121 318.05 151.366 307.621C152.328 303.148 153.143 298.659 154.076 294.184C155.118 289.15 154.416 288.253 149.174 288.086C149.007 288.08 148.831 288.073 147.616 288.027Z" fill="#FFEFF4"/>
<path fill-rule="evenodd" clip-rule="evenodd" d="M203.899 235.971C208.289 241.596 207.924 247.674 206.648 254.005C204.266 265.753 196.662 273.389 186.573 279.022C183.597 280.68 180.268 281.563 176.691 281.468C170.459 281.303 164.819 279.696 160.028 275.619C159.505 275.175 159.014 274.671 158.428 274.333C154.144 271.917 151.889 267.935 150.117 263.666C148.227 259.114 146.625 254.475 145.778 249.597C144.9 244.491 145.224 239.499 146.578 234.516C147.454 231.276 149.22 228.662 151.705 226.481C154.849 223.721 158.59 222.042 162.542 220.777C164.15 220.264 165.6 220.585 166.748 221.885C167.877 223.163 169.158 224.339 170.126 225.72C175.06 232.809 182.322 235.357 190.554 235.835C194.851 236.086 199.153 235.941 203.899 235.971ZM178.426 249.016C178.535 247.685 178.06 245.957 177.003 244.325C175.195 241.527 172.563 240.805 169.434 241.32C166.947 241.721 165.578 243.44 165.049 246.832C164.894 247.825 164.826 248.861 164.956 249.844C165.439 253.443 168.392 255.799 172.124 255.692C175.61 255.586 178.166 253.091 178.426 249.016Z" fill="#FFEFF4"/>
<path fill-rule="evenodd" clip-rule="evenodd" d="M86.8134 235.144C88.7968 234.833 90.3833 235.427 92.0222 235.934C102.738 239.235 115.499 253.155 114.441 268.316C114.229 271.354 113.831 274.395 113.297 277.391C111.032 289.935 98.2416 302.755 79.694 299.812C75.374 299.125 71.3986 297.621 67.7831 295.151C62.7619 291.708 58.5446 287.495 55.171 282.492C52.8292 279.012 52.2968 277.251 52.0539 273.256C54.5809 271.789 57.2464 270.287 59.8754 268.715C68.9056 263.328 76.119 256.163 81.3136 247.111C82.8349 244.469 84.0106 241.625 85.3012 238.855C85.8658 237.66 86.3054 236.401 86.8134 235.144ZM98.116 266.801C98.2535 263.128 94.4617 259.078 90.7966 258.98C86.7687 258.878 82.6555 262.887 82.4175 267.15C82.2055 270.979 85.6478 274.145 90.1753 274.266C94.7122 274.397 97.9452 271.364 98.116 266.801Z" fill="#FFEFF4"/>
<path fill-rule="evenodd" clip-rule="evenodd" d="M88.5065 218.731C90.1398 218.338 91.6341 217.988 93.1291 217.619C100.002 215.89 105.13 212.009 108.598 205.859C111.75 200.262 113.193 194.204 114.201 187.982C114.458 186.35 114.783 184.74 115.057 183.198C116.877 183.069 116.885 184.424 117.278 185.19C119.898 190.392 123.204 195.125 126.809 199.701C132.682 207.132 140.207 212.34 148.939 215.972C150.658 216.679 152.388 217.377 154.639 218.293C153.287 219.3 152.436 220.02 151.502 220.618C145.701 224.375 142.355 229.639 141.151 236.368C140.369 240.749 140.226 245.115 140.733 249.634C136.725 250.314 132.814 250.77 129.023 251.666C125.203 252.57 121.493 253.924 117.533 255.15C111.535 242.423 102.769 232.906 88.0808 229.841C88.2248 226.256 88.3556 222.76 88.5065 218.731Z" fill="#FFEFF4"/>
<path fill-rule="evenodd" clip-rule="evenodd" d="M259.943 406.817C256.825 407.036 254.789 407.187 252.753 407.318C251.514 407.4 250.311 407.572 249.781 408.897C249.325 410.047 249.821 411.213 251.299 412.347C252.109 412.981 253.053 413.451 253.833 414.114C254.603 414.766 255.38 415.497 255.898 416.347C256.165 416.792 256.026 417.628 255.781 418.153C255.653 418.425 254.821 418.641 254.443 418.508C253.156 418.044 251.923 417.444 250.69 416.843C249.611 416.318 248.609 415.559 247.484 415.229C246.785 415.025 245.671 415.181 245.173 415.637C244.665 416.102 244.399 417.19 244.549 417.898C244.823 419.204 245.533 420.417 245.946 421.709C246.27 422.759 245.459 423.708 244.271 423.752C242.827 423.807 241.481 423.598 240.993 421.957C240.531 420.397 239.92 418.92 237.895 419.279C236.217 419.572 236.123 421.013 235.817 422.396C235.229 424.984 232.129 426.311 229.822 425.038C229.284 424.741 228.799 424.08 228.624 423.499C227.711 420.379 227.222 417.186 227.696 413.951C228.211 410.42 228.891 406.924 229.465 403.396C229.667 402.197 230.173 401.256 230.975 400.268C232.868 397.916 234.983 395.662 235.37 392.403C235.481 391.527 236.331 390.56 237.1 389.946C241.612 386.289 246.72 383.999 252.665 383.985C255.647 383.979 256.666 385.342 256.244 388.214C255.992 389.985 255.23 391.459 253.816 392.553C252.735 393.393 251.57 394.12 250.451 394.919C249.433 395.642 248.567 396.509 248.986 397.88C249.328 398.971 250.274 399.392 251.378 399.513C255.49 399.974 257.37 402.962 259.943 406.817Z" fill="#FFEFF4"/>
<path fill-rule="evenodd" clip-rule="evenodd" d="M49.9887 312.203C47.0607 313.379 44.447 313.231 41.9168 313.215C37.592 313.18 33.3309 312.496 29.2015 311.173C25.3631 309.941 21.9453 307.953 19.1997 305.041C15.3694 300.971 13.2781 296.303 14.7663 290.613C15.372 288.322 15.6683 285.91 16.5732 283.749C17.3382 281.918 18.5991 280.205 19.9501 278.704C21.9766 276.456 24.7255 276.134 27.5742 276.815C28.3422 277.002 29.1654 277.547 29.6526 278.159C30.4863 279.209 31.2667 280.376 31.7302 281.619C35.7174 292.243 41.1492 302.01 48.9367 310.433C49.2474 310.781 49.4349 311.272 49.9887 312.203Z" fill="#FFEFF4"/>
<path fill-rule="evenodd" clip-rule="evenodd" d="M70.5993 438.182C68.8176 437.561 68.6527 436.2 68.3394 434.873C67.6532 431.979 66.8655 431.01 65.5467 431.385C63.3161 432.013 63.6674 433.896 63.5658 435.563C63.4697 437.083 63.412 438.623 63.1403 440.116C62.9935 440.892 62.4082 441.592 62.0805 442.222C59.957 442.607 58.9732 441.374 58.2391 440.021C57.514 438.688 57.1693 437.152 56.4243 435.828C56.0655 435.192 55.159 434.515 54.4823 434.509C53.7963 434.493 52.9001 435.112 52.4262 435.717C51.8085 436.495 51.6575 437.647 51.0303 438.414C50.075 439.565 48.9564 440.621 47.7552 441.525C47.3312 441.845 46.392 441.78 45.821 441.571C44.8145 441.207 44.8043 440.168 45.078 439.407C45.9421 437.026 46.9226 434.68 47.9317 432.354C48.4689 431.108 49.2668 429.971 49.7165 428.703C50.2632 427.2 48.7304 425.432 47.157 425.798C45.6725 426.147 44.227 426.765 42.8119 427.355C41.0677 428.09 39.4232 429.047 37.6348 429.652C36.5914 430.009 35.3801 429.874 33.8849 429.986C34.7271 426.615 36.4966 424.417 38.9047 422.718C39.6805 422.173 40.8035 422.048 41.7919 421.848C42.7905 421.638 43.8488 421.668 44.8297 421.408C45.9194 421.123 46.6057 420.347 46.4733 419.166C46.341 417.984 45.4805 417.388 44.3976 417.228C43.3829 417.081 42.3314 417.131 41.3021 417.112C36.8918 417.005 33.8882 414.696 31.757 411.096C30.8532 409.558 31.655 408.056 33.4827 407.709C33.6507 407.676 33.8191 407.633 33.9958 407.629C42.8003 407.486 51.0866 409.133 58.5524 414.092C62.2376 416.535 64.9047 419.711 66.9102 423.525C68.3389 426.239 69.748 428.952 71.1669 431.666C72.0097 433.26 72.0546 434.943 71.5996 436.617C71.4504 437.195 70.9316 437.69 70.5993 438.182Z" fill="#FFEFF4"/>
<path fill-rule="evenodd" clip-rule="evenodd" d="M208.086 277.951C208.54 272.904 208.939 268.004 209.445 263.118C209.567 261.956 209.983 260.804 210.388 259.682C213.045 252.385 212.966 245.063 210.751 237.681C210.41 236.571 210.15 235.384 210.164 234.237C210.195 230.787 212.008 228.976 215.508 228.782C218.398 228.614 220.936 229.49 223.09 231.431C227.028 234.971 229.002 239.357 228.728 244.589C228.458 249.721 227.37 254.674 224.699 259.192C220.781 265.849 215.996 271.82 210.467 277.23C210.101 277.582 209.64 277.841 209.198 278.102C209.098 278.157 208.896 278.06 208.086 277.951Z" fill="#FFEFF4"/>
<path fill-rule="evenodd" clip-rule="evenodd" d="M55.0282 316.221C52.1416 316.814 49.9492 317.206 47.7919 317.709C45.6045 318.23 43.4014 318.908 42.1392 320.918C38.4064 326.82 34.6251 332.71 31.1516 338.761C29.8192 341.074 28.9049 343.749 28.4241 346.372C27.4022 351.921 29.7432 354.373 35.5155 353.997C37.187 353.892 38.9047 353.343 40.4319 352.639C42.2886 351.779 43.9726 350.557 45.7203 349.466C46.8854 348.738 47.9581 347.859 49.1595 347.212C51.5826 345.899 53.1828 346.651 53.6251 349.249C53.8495 350.593 53.817 351.986 54.1705 353.285C54.844 355.733 55.4663 358.239 56.5786 360.496C59.2208 365.906 61.1691 364.437 63.8018 361.717C65.1077 360.372 66.425 358.987 67.9282 357.877C70.0067 356.333 72.1929 356.633 73.8946 358.606C74.8911 359.761 75.6848 361.096 76.5296 362.374C77.2715 363.52 77.903 364.73 78.675 365.857C80.2945 368.193 82.6005 369.219 85.396 368.701C90.1963 367.824 94.217 365.76 96.1422 360.976C96.715 359.564 97.1818 358.098 97.5609 356.619C98.5523 352.671 99.4861 348.691 100.39 344.719C100.566 343.945 100.47 343.12 100.51 342.034C83.7364 335.993 68.285 327.905 55.0282 316.221Z" fill="#F3C888"/>
<path fill-rule="evenodd" clip-rule="evenodd" d="M231.045 313.994C230.924 312.506 230.6 310.931 229.934 309.611C229.02 307.806 227.941 305.975 226.512 304.577C222.244 300.401 217.824 296.368 213.332 292.411C211.433 290.737 209.259 289.34 206.359 288.44C205.085 291.566 204.081 294.278 202.894 296.893C197.722 308.23 191.534 318.925 182.642 327.936C179.543 331.083 179.428 332.82 181.684 336.504C184.836 341.657 189.433 345.163 195.202 346.982C201.135 348.847 205.28 346.887 207.513 341.225C208.574 338.555 210.251 337.51 213.018 337.743C213.869 337.815 214.743 337.808 215.598 337.741C219.406 337.449 220.912 335.479 219.876 331.969C219.492 330.688 218.811 329.476 218.18 328.275C217.548 327.075 216.716 325.965 216.144 324.747C215.308 322.965 216.336 321.194 218.274 321.039C219.474 320.936 220.684 321.11 221.884 321.027C223.418 320.927 225 320.867 226.467 320.448C229.79 319.485 231.312 317.337 231.045 313.994Z" fill="#F3C888"/>
<path fill-rule="evenodd" clip-rule="evenodd" d="M199.074 221.528C199.768 222.118 200.625 222.546 202.09 223.501C200.62 217.423 198.939 212.296 196.71 207.356C191.202 195.172 182.827 185.155 172.941 176.189C166.357 170.215 158.929 165.812 150.537 162.796C143.829 160.387 136.915 159.049 129.891 158.27C123.326 157.539 116.762 157.836 110.371 159.543C103.059 161.493 95.7465 163.433 88.661 166.134C79.1872 169.743 70.7294 174.775 63.9051 182.291C62.2987 184.06 60.817 186.17 58.7935 187.291C55.4376 189.152 53.4855 192.036 51.4916 194.987C46.9106 201.797 43.1276 209.042 39.8745 216.545C34.0438 230.013 31.2124 244.068 31.8016 258.727C31.9881 263.441 32.5678 268.131 34.1481 272.562C38.792 273.241 42.6212 272.1 46.0109 270.121C46.8938 264.616 47.667 259.423 48.5769 254.245C49.6992 247.849 52.4557 242.346 57.6454 238.14C63.8164 233.141 70.786 230.13 78.793 229.541C79.9834 229.447 81.1641 229.353 82.266 229.266C83.8297 224.706 83.8752 223.492 82.6721 218.68C81.9048 215.595 82.4075 214.743 85.551 214.1C87.7456 213.649 89.9731 213.367 92.15 212.865C97.4832 211.642 101.442 208.616 104.158 203.932C106.58 199.751 107.995 195.245 108.848 190.53C109.798 185.344 110.522 180.139 110.612 174.852C110.637 173.676 110.829 172.477 111.194 171.363C111.637 170.005 113.579 169.485 114.623 170.434C116.008 171.692 117.274 172.976 117.999 174.843C119.36 178.326 120.879 181.775 122.649 185.066C130.059 198.844 140.737 208.928 156.21 213.555C160.217 214.745 164.129 215.841 168.324 214.615C169.306 214.325 170.367 214.296 171.401 214.196C181.561 213.224 191.039 214.718 199.074 221.528Z" fill="#F3C888"/>
<path fill-rule="evenodd" clip-rule="evenodd" d="M80.9132 234.744C80.6042 234.614 80.2898 234.365 79.9952 234.374C69.793 234.642 62.0527 239.375 56.06 247.21C55.5549 247.863 55.2492 248.692 54.945 249.482C52.8426 255.069 52.2301 260.951 51.246 267.322C64.8178 262.73 80.4506 245.269 80.9132 234.744Z" fill="#F3C888"/>
<path fill-rule="evenodd" clip-rule="evenodd" d="M200.57 231.068C196.282 222.194 182.243 216.454 171.827 219.82C172.77 221.082 173.677 222.273 174.564 223.493C177.093 226.941 180.469 228.997 184.667 230.055C189.759 231.334 194.881 231.042 200.57 231.068Z" fill="#F3C888"/>
<path fill-rule="evenodd" clip-rule="evenodd" d="M143.86 522.223C135.566 524.463 123.995 521.713 118.485 516.393C118.519 514.97 119.516 514.285 120.723 514.014C125.809 512.841 130.958 512.59 136.104 513.496C138.336 513.886 140.337 514.921 141.964 516.545C143.487 518.056 144.433 519.763 143.86 522.223Z" fill="#F9BD70"/>
<path fill-rule="evenodd" clip-rule="evenodd" d="M238.664 487.528C237.554 486.27 237.488 485.13 238.07 483.995C241.032 478.261 244.443 472.832 249.316 468.446C250.808 467.098 252.386 465.812 254.939 466.027C255.184 467.065 255.668 468.032 255.585 468.949C255.425 470.604 255.135 472.314 254.528 473.864C252.274 479.555 245.271 485.561 238.664 487.528Z" fill="#F9BD70"/>
<path fill-rule="evenodd" clip-rule="evenodd" d="M105.53 367.526C105.655 367.314 105.791 367.103 105.927 366.891C105.883 366.998 105.888 367.136 105.807 367.202C105.695 367.296 105.537 367.339 105.397 367.403C105.406 367.403 105.53 367.526 105.53 367.526Z" fill="#FFEFF4"/>
<path fill-rule="evenodd" clip-rule="evenodd" d="M172.143 374.409C167.534 374.374 162.257 367.529 162.967 363.511C163.525 360.397 164.706 357.672 167.024 355.485C169.139 353.488 171.103 353.71 172.402 356.211C174.588 360.438 176.685 364.71 178.701 369.018C179.601 370.931 179.049 372.295 177.027 373.119C175.484 373.723 173.777 373.986 172.143 374.409Z" fill="#FFE7A4"/>
<path fill-rule="evenodd" clip-rule="evenodd" d="M199.921 426.099C197.673 428.764 195.09 429.349 192.052 427.969C191.126 427.549 190.213 427.039 189.361 426.483C183.51 422.673 183.051 416.336 188.241 411.587C190.892 409.155 194.391 409.771 195.698 413.104C197.374 417.34 198.851 421.648 199.921 426.099Z" fill="#FFE7A4"/>
<path fill-rule="evenodd" clip-rule="evenodd" d="M93.8311 436.841C94.6298 433.064 95.3343 429.441 96.1851 425.843C97.0348 422.275 101.227 420.347 104.672 421.871C107.625 423.178 108.894 425.689 109.303 428.671C109.704 431.584 108.723 433.93 106.14 435.593C102.31 438.07 98.3213 438.484 93.8311 436.841Z" fill="#FFE7A4"/>
<path fill-rule="evenodd" clip-rule="evenodd" d="M157.956 454.93C150.724 456.3 143.806 456.623 136.787 456.24C137.598 450.554 141.552 446.362 146.557 445.759C147.681 445.623 148.947 445.859 150.042 446.236C153.906 447.568 155.667 449.514 157.956 454.93Z" fill="#FFE7A4"/>
<path fill-rule="evenodd" clip-rule="evenodd" d="M111.586 364.266C113.009 365.022 113.988 365.336 114.681 365.945C116.381 367.443 117.409 369.351 117.874 371.604C119.344 378.701 116.365 383.088 109.128 384.329C107.854 384.548 106.784 383.519 107.09 382.166C107.983 378.214 108.964 374.285 109.945 370.346C110.385 368.573 110.892 366.802 111.586 364.266Z" fill="#FFE7A4"/>
<path fill-rule="evenodd" clip-rule="evenodd" d="M147.785 346.374C146.347 349.94 144.459 352.163 141.036 352.39C139.797 352.472 138.368 351.884 137.234 351.248C135.946 350.527 134.83 349.437 134.69 347.414C139.022 347.231 143.135 346.654 147.785 346.374Z" fill="#FFE7A4"/>
<path fill-rule="evenodd" clip-rule="evenodd" d="M138.006 402.703C138.504 400.922 138.771 399.043 139.529 397.391C141.739 392.598 147.242 391.302 151.58 394.383C153.759 395.928 155.263 397.933 155.912 400.499C157.689 407.558 151.145 414.136 143.808 412.544C142.582 412.281 141.352 411.325 140.485 410.382C138.524 408.251 138.115 405.566 138.006 402.703Z" fill="#FFE7A4"/>
<path fill-rule="evenodd" clip-rule="evenodd" d="M122.485 297.16C125.495 295.622 128.29 295.124 131.243 294.869C136.035 294.456 140.784 293.646 145.564 293.044C146.55 292.913 147.549 292.961 148.894 292.922C148.884 293.98 148.991 294.795 148.835 295.561C147.967 299.879 147.138 304.2 146.105 308.483C145.154 312.383 142.516 314.469 138.42 314.859C130.032 315.671 126.814 312.82 124.197 306.728C122.914 303.782 122.109 300.647 122.485 297.16Z" fill="#F2F3F5"/>
<path fill-rule="evenodd" clip-rule="evenodd" d="M204.327 270.413C204.627 262.414 199.283 255.003 190.968 254.927C183.074 254.848 176.597 261.982 174.862 269.294C173.58 274.705 175.004 280.445 178.565 284.09C182.863 290.087 191.406 290.112 196.87 285.392C201.515 282.135 204.109 275.993 204.327 270.413Z" fill="#FEDAC6"/>
<path fill-rule="evenodd" clip-rule="evenodd" d="M88.8526 287.082C84.6611 278.508 75.0963 276.951 67.1166 281.003C59.657 284.786 56.1137 293.227 57.3714 301.295C58.4963 308.458 64.9419 312.37 71.4483 313.347C76.2768 314.072 82.0177 311.915 85.2257 308.238C85.7893 307.597 86.2857 306.913 86.7143 306.207C90.7021 300.829 91.7412 292.986 88.8526 287.082Z" fill="#FEDAC6"/>
<path fill-rule="evenodd" clip-rule="evenodd" d="M105.528 367.529C104.78 368.401 103.887 369.178 103.312 370.135C99.3669 376.732 94.9532 383.004 90.0616 388.941C85.2927 394.745 80.5046 400.538 75.5925 406.238C73.0493 409.188 70.2294 411.93 67.2787 415.023C68.3908 417.023 69.5503 419.065 70.6693 421.144C72.2835 424.142 73.9776 427.104 75.4021 430.193C76.9178 433.464 76.6746 436.818 75.0926 440.032C73.5006 443.255 72.3951 443.698 68.4801 442.938C68.1685 442.876 67.8227 442.943 67.3612 442.955C66.7943 443.685 66.2422 444.545 65.5382 445.27C63.3046 447.549 60.7705 447.899 58.0887 446.166C56.6805 445.263 55.4706 444.04 54.0438 442.849C52.8564 443.645 51.8214 444.566 50.6042 445.113C49.2268 445.744 47.7131 446.349 46.228 446.452C42.5997 446.681 40.4168 444.463 40.4824 440.875C40.5071 439.689 40.6303 438.497 40.86 437.339C41.069 436.21 41.4733 435.107 41.8581 433.737C40.1943 433.111 39.021 434.056 37.8046 434.316C35.7377 434.763 33.7374 435.004 31.7087 434.166C30.0958 433.492 29.2958 432.325 29.2615 430.622C29.2105 428.316 30.0902 426.302 31.3084 424.42C32.2146 423.01 33.2452 421.684 34.3224 420.162C33.2853 419.302 32.2801 418.641 31.4984 417.771C30.1328 416.256 28.6688 414.747 27.6947 412.99C25.268 408.636 27.4523 404.268 32.4379 403.417C34.4522 403.067 36.5703 403.088 38.6244 403.244C47.1726 403.922 55.2863 405.988 62.256 411.096C64.7371 410.853 66.4839 409.524 67.9976 407.87C70.0836 405.605 72.2268 403.381 74.1601 401.002C80.6277 393.056 87.2292 385.205 93.3244 376.989C96.9708 372.082 99.9591 366.676 102.907 361.308C105.749 356.124 108.169 350.717 110.94 345.075C109.261 344.607 107.659 344.161 106.154 343.738C104.741 345.326 104.423 347.006 104.029 348.633C103.238 351.936 102.496 355.25 101.686 358.553C100.9 361.718 99.7464 364.76 97.5257 367.218C94.0262 371.081 89.4153 372.925 84.27 373.325C81.2105 373.556 78.5004 372.317 76.4165 370.073C75.2666 368.823 74.35 367.364 73.3924 365.953C72.5371 364.695 71.7623 363.38 70.7624 361.79C69.7649 362.494 68.9323 362.987 68.2221 363.613C67.0659 364.627 66.06 365.816 64.8664 366.78C61.4664 369.559 57.7589 369.281 54.8304 366.016C52.8626 363.816 51.6167 361.198 50.7399 358.415C50.2312 356.804 49.8416 355.157 49.289 353.149C48.4431 353.473 47.6803 353.672 46.9998 354.032C45.1879 355.002 43.4579 356.144 41.6189 357.053C37.8813 358.891 33.9832 358.991 30.0479 357.726C25.7542 356.338 23.5391 353.406 23.5284 348.975C23.5143 344.633 24.8726 340.58 27.0035 336.852C29.1976 333.009 31.68 329.324 34.0278 325.566C35.4571 323.286 37.0888 321.102 38.0362 318.329C35.585 317.248 33.1775 317.098 30.8819 316.576C25.7362 315.413 21.098 313.271 17.1886 309.741C11.4858 304.592 8.53065 298.369 9.87047 290.616C10.3076 288.111 10.7458 285.576 11.5714 283.174C14.3464 275.08 19.0211 271.794 28.0056 271.559C28.0694 270.642 28.3418 269.653 28.1701 268.737C24.7341 249.678 28.3251 231.577 35.7609 214.016C38.8818 206.637 42.7442 199.632 47.0972 192.883C50.2633 187.968 54.1139 183.633 58.5531 179.825C65.5966 173.79 72.9287 168.172 81.4072 164.159C83.105 163.353 84.8485 162.637 86.6006 161.952C87.8752 161.446 89.2678 161.192 90.4967 160.595C96.4217 157.713 102.881 156.551 109.181 154.919C118.334 152.534 127.606 152.735 136.894 154.37C143.198 155.488 149.339 157.064 155.283 159.443C162.058 162.161 168.211 165.765 173.752 170.523C185.214 180.359 194.83 191.541 201.093 205.325C203.712 211.09 205.398 217.147 207.144 223.186C207.413 224.126 207.77 225.049 208.195 226.291C209.233 225.816 209.953 225.438 210.7 225.14C216.587 222.741 221.872 223.869 226.474 228.018C231.465 232.528 233.826 238.125 233.515 244.858C233.209 251.453 231.45 257.568 227.915 263.171C223.815 269.692 219.02 275.673 213.434 281.04C212.345 282.087 211.256 283.134 209.893 284.438C210.761 285.103 211.368 285.64 212.049 286.071C218.887 290.492 224.774 295.965 230.201 301.925C232.897 304.875 234.692 308.275 235.544 312.234C236.596 317.149 234.136 322.871 227.649 324.773C226.826 325.009 225.959 325.115 225.119 325.291C224.307 325.468 223.496 325.665 222.436 325.922C223.08 327.588 223.697 328.946 224.144 330.358C226.207 336.824 222.981 341.519 216.133 342.072C214.932 342.165 213.733 342.229 212.357 342.316C211.752 343.519 211.187 344.744 210.515 345.906C208.71 349.062 205.922 350.945 202.339 351.551C198.518 352.189 194.802 351.881 191.205 350.232C184.724 347.259 179.629 342.913 176.576 336.43C176.294 335.826 175.943 335.259 175.558 334.532C174.849 334.861 174.193 335.084 173.64 335.449C172.523 336.198 171.453 337.028 170.121 338.006C170.795 339.13 171.285 340.186 171.997 341.083C180.35 351.693 188.632 362.369 197.167 372.837C203.254 380.296 210.166 386.945 218.894 391.466C221.175 392.65 223.549 393.689 225.936 394.649C228.023 395.489 229.002 395.021 230.069 392.995C230.227 392.694 230.347 392.372 230.467 392.06C231.981 387.766 235.144 385.036 239.169 383.121C242.905 381.333 246.702 379.735 250.938 379.509C251.459 379.479 251.964 379.35 252.475 379.34C258.608 379.293 262.115 383.599 260.65 389.448C260.327 390.751 259.76 392.015 259.127 393.208C258.588 394.226 257.79 395.116 256.775 396.531C258.009 397.656 259.372 398.706 260.493 399.955C261.622 401.224 262.709 402.59 263.477 404.082C264.738 406.573 264.081 408.654 261.754 410.287C260.938 410.86 259.972 411.239 258.772 411.847C259.276 412.805 259.784 413.635 260.164 414.51C262.332 419.467 259.941 423.076 254.549 422.982C253.52 422.963 252.506 422.806 251.568 422.711C251.214 422.995 250.864 423.15 250.727 423.421C248.662 427.478 246.851 428.695 242.664 427.855C240.123 427.344 238.057 427.513 235.802 428.783C234.529 429.497 232.826 429.67 231.294 429.702C227.505 429.787 224.983 427.971 224.108 424.348C223.072 420.046 222.44 415.711 223.461 411.24C224.328 407.455 224.787 403.585 225.447 399.575C223.722 398.749 222.211 397.98 220.667 397.299C213.016 393.895 206.429 389.039 200.547 383.171C195.071 377.713 190.405 371.594 185.608 365.578C183.5 362.928 181.403 360.258 179.249 357.536C178.264 358.686 179.1 359.419 179.439 360.055C186.9 374.3 191.883 389.52 197.532 404.478C200.888 413.367 203.816 422.407 206.705 431.437C207.874 435.071 208.148 438.76 207.448 442.511C206.635 446.941 204.064 449.851 199.689 451.159C197.894 451.695 196.045 452.081 193.787 452.648C194.646 454.065 195.239 455.254 196.044 456.303C199.27 460.509 202.527 464.697 205.845 468.827C211.047 475.302 217.172 480.725 224.848 484.248C227.172 485.314 229.463 486.489 232.249 486.495C234.602 479.186 238.959 473.119 243.784 467.387C245.293 465.594 247.421 464.309 249.32 462.848C249.855 462.443 250.523 462.142 251.177 461.959C256.003 460.657 259.596 461.643 260.113 467.754C260.379 470.86 259.698 473.85 258.202 476.603C254.578 483.27 249.178 488.111 242.243 491.262C240.018 492.266 237.765 492.171 235.237 491.839C223.68 490.306 214.596 484.535 206.765 476.496C204.025 473.683 201.551 470.603 199.065 467.563C196.693 464.645 194.431 461.642 192.19 458.631C190.985 457.003 189.921 455.292 188.751 453.537C178.839 455.478 168.889 457.398 158.946 459.377C149.113 461.331 139.066 460.34 128.953 461.106C127.039 477.125 126.363 493.081 121.099 508.182C123.26 509.401 124.975 508.684 126.645 508.599C130.273 508.399 133.867 508.297 137.443 509.203C140.718 510.029 143.524 511.568 145.806 514.028C147.89 516.272 148.782 518.916 148.51 521.982C148.289 524.476 147.002 526.118 144.649 526.85C143.349 527.256 141.964 527.57 140.599 527.618C131.884 527.992 123.898 525.644 116.545 521.085C114.138 519.6 112.29 517.622 111.691 514.751C111.357 513.176 111.669 511.922 113.238 511.427C115.372 510.746 116.162 509.312 116.722 507.454C119.01 499.787 120.938 492.046 121.863 484.1C122.746 476.508 123.471 468.911 124.294 461.08C123.056 460.875 121.899 460.604 120.735 460.51C114.202 459.978 107.657 459.524 101.135 458.962C97.3308 458.641 93.6132 457.848 90.196 456.107C86.5093 454.228 85.6835 452.703 86.5792 448.692C89.7416 434.442 92.9047 420.171 96.2909 405.968C98.9676 394.736 101.985 383.575 104.778 372.376C105.182 370.76 105.207 369.05 105.407 367.376C105.546 367.312 105.705 367.259 105.816 367.174C105.897 367.108 105.893 366.969 105.936 366.862C105.79 367.103 105.654 367.316 105.528 367.529ZM82.2766 229.246C83.8403 224.687 83.8857 223.472 82.6827 218.66C81.9153 215.575 82.4181 214.724 85.5616 214.081C87.7562 213.629 89.9837 213.347 92.1606 212.845C97.4937 211.622 101.452 208.596 104.168 203.912C106.591 199.731 108.005 195.225 108.859 190.51C109.808 185.324 110.533 180.12 110.623 174.832C110.647 173.656 110.839 172.457 111.205 171.343C111.648 169.985 113.59 169.465 114.633 170.414C116.019 171.673 117.285 172.957 118.01 174.823C119.37 178.306 120.889 181.756 122.659 185.046C130.07 198.825 140.748 208.909 156.221 213.536C160.227 214.725 164.14 215.822 168.335 214.595C169.317 214.306 170.377 214.276 171.411 214.177C181.551 213.204 191.03 214.707 199.074 221.508C199.768 222.098 200.625 222.525 202.091 223.481C200.621 217.402 198.939 212.276 196.711 207.336C191.203 195.152 182.828 185.135 172.942 176.169C166.358 170.195 158.93 165.791 150.538 162.776C143.83 160.367 136.915 159.029 129.891 158.25C123.327 157.519 116.763 157.816 110.372 159.523C103.059 161.473 95.7473 163.413 88.6618 166.114C79.188 169.723 70.7302 174.755 63.9058 182.271C62.2995 184.04 60.8177 186.15 58.7943 187.271C55.4384 189.132 53.4862 192.016 51.4923 194.967C46.9114 201.777 43.1284 209.022 39.8753 216.525C34.0445 229.992 31.2132 244.048 31.8023 258.707C31.9888 263.421 32.5686 268.111 34.1488 272.542C38.7928 273.221 42.622 272.079 46.0117 270.1C46.8946 264.596 47.6678 259.403 48.5777 254.225C49.7 247.829 52.4565 242.326 57.6462 238.12C63.8172 233.121 70.7867 230.109 78.7938 229.521C79.9839 229.437 81.1747 229.333 82.2766 229.246ZM201.562 431.253C200.576 431.661 199.968 431.915 199.36 432.179C195.758 433.784 192.246 433.276 188.95 431.441C187.162 430.454 185.554 429.127 183.965 427.831C180.405 424.918 179.362 421.081 180.473 416.811C181.906 411.278 184.608 406.721 190.988 405.567C191.59 405.461 192.134 405.096 192.831 404.796C190.979 399.771 189.275 394.97 187.423 390.213C185.588 385.515 184.331 380.562 181.536 376.106C180.05 376.752 178.848 377.409 177.568 377.806C174.918 378.626 172.262 379.08 169.447 378.291C161.875 376.177 156.826 367.699 159.007 360.285C160.131 356.45 162.264 353.188 165.648 350.833C166.464 350.261 167.327 349.749 168.503 348.992C166.861 346.488 166.449 343.584 164.629 341.103C160.802 342.472 157.104 343.777 153.266 345.145C152.938 346.053 152.559 346.988 152.249 347.935C151.308 350.798 149.422 352.972 147.088 354.783C143.552 357.527 139.444 357.739 135.494 355.533C133.477 354.409 132.048 352.733 130.773 350.905C129.907 349.666 129.091 348.389 128.237 347.091C124.173 346.908 120.292 346.04 116.159 346.379C114.165 350.656 113.109 354.997 112.829 359.338C114.77 360.677 116.618 361.627 118.068 362.997C121.831 366.511 122.837 371.068 122.789 376.021C122.743 380.133 120.903 383.16 117.629 385.469C115.06 387.281 112.138 388.279 109.101 388.976C107.775 389.272 106.459 389.578 105.261 389.86C102.367 398.523 98.9888 412.775 98.8934 416.896C99.7163 416.927 100.556 417.037 101.372 416.979C106.056 416.601 109.275 418.918 111.751 422.483C115.679 428.129 114.141 435.676 108.417 439.466C104.816 441.853 100.827 442.543 96.5871 442.344C95.2651 442.284 93.8462 441.667 92.4934 442.951C92.0323 445.575 90.6971 448.224 91.0713 451.067C92.5305 452.704 94.3954 453.199 96.2139 453.624C98.3923 454.131 100.611 454.62 102.832 454.763C111.434 455.314 120.05 455.747 128.667 456.171C129.636 456.217 130.629 455.898 131.595 455.767C132.019 454.408 132.278 453.251 132.731 452.16C134.076 448.977 136.033 446.242 138.935 444.185C144.336 440.363 149.858 440.126 155.229 443.918C157.149 445.276 158.758 447.127 160.289 448.925C161.596 450.448 162.599 452.226 163.891 454.114C169.755 452.881 175.629 451.619 181.511 450.406C186.563 449.36 191.65 448.414 196.693 447.328C201.46 446.301 203.052 444.403 203.339 439.617C203.51 436.864 203.139 434.22 201.562 431.253ZM119.205 260.019C119.085 260.884 118.889 261.401 118.969 261.869C119.769 266.982 119.071 271.99 118.283 277.053C115.442 295.302 95.8574 311.417 71.3902 302.564C60.4547 297.267 52.2028 289.46 47.6929 278.125C47.3434 277.242 46.8247 276.421 46.4407 275.675C42.7959 276.606 39.4879 277.45 36.051 278.33C36.1793 279.096 36.193 279.779 36.4153 280.391C41.3102 293.758 49.0237 305.204 60.1783 314.346C69.5242 322.016 79.8006 328.149 90.8576 333.085C106.71 340.169 123.241 343.501 140.655 342.159C156.081 340.959 169.139 334.884 179.872 323.855C187.116 316.394 192.222 307.607 196.909 298.497C200.716 291.114 202.677 283.276 203.337 275.082C203.405 274.333 203.784 273.359 202.508 273.133C200.91 274.942 199.493 276.896 197.727 278.471C187.456 287.638 169.784 289.356 159.05 281.021C157.563 279.867 156.015 278.78 154.466 277.713C151.568 275.715 149.431 273.063 147.908 269.98C146.549 267.239 145.39 264.406 144.21 261.583C143.437 259.714 142.773 257.8 142.014 255.794C133.537 253.724 126.487 257.573 119.205 260.019ZM203.899 235.97C199.153 235.93 194.85 236.084 190.563 235.824C182.332 235.336 175.07 232.798 170.136 225.71C169.168 224.318 167.887 223.153 166.758 221.874C165.61 220.565 164.16 220.253 162.552 220.766C158.6 222.032 154.849 223.71 151.714 226.47C149.22 228.651 147.464 231.275 146.587 234.505C145.234 239.488 144.899 244.49 145.787 249.587C146.635 254.464 148.247 259.104 150.126 263.655C151.899 267.935 154.153 271.906 158.438 274.322C159.024 274.651 159.525 275.164 160.038 275.609C164.819 279.685 170.468 281.292 176.701 281.458C180.278 281.563 183.597 280.679 186.583 279.011C196.682 273.378 204.285 265.743 206.658 253.994C207.934 247.683 208.289 241.594 203.899 235.97ZM86.8135 235.143C86.3054 236.4 85.8659 237.659 85.3009 238.864C84.0103 241.634 82.8346 244.478 81.3133 247.12C76.1187 256.172 68.8955 263.337 59.8751 268.723C57.2461 270.296 54.5806 271.798 52.0536 273.265C52.2867 277.259 52.8195 279.01 55.1707 282.501C58.5443 287.503 62.7613 291.727 67.7828 295.16C71.3983 297.63 75.3738 299.134 79.6937 299.821C98.2417 302.754 111.023 289.933 113.297 277.4C113.841 274.404 114.239 271.353 114.441 268.325C115.499 253.164 102.748 239.244 92.0219 235.943C90.3834 235.426 88.7969 234.832 86.8135 235.143ZM88.5069 218.731C88.3561 222.76 88.2256 226.246 88.0911 229.841C102.779 232.906 111.536 242.423 117.544 255.15C121.503 253.934 125.213 252.58 129.033 251.666C132.824 250.76 136.726 250.314 140.744 249.634C140.236 245.115 140.38 240.739 141.162 236.368C142.365 229.649 145.711 224.385 151.512 220.618C152.447 220.01 153.298 219.29 154.65 218.293C152.388 217.377 150.668 216.679 148.949 215.972C140.217 212.34 132.692 207.132 126.819 199.701C123.204 195.134 119.899 190.392 117.288 185.19C116.895 184.414 116.887 183.059 115.067 183.198C114.794 184.73 114.469 186.35 114.211 187.982C113.203 194.204 111.76 200.262 108.608 205.859C105.141 212.009 100.012 215.89 93.1394 217.619C91.6346 217.988 90.1402 218.337 88.5069 218.731ZM55.0268 316.219C52.1402 316.813 49.9478 317.205 47.7905 317.707C45.6031 318.228 43.4 318.907 42.1378 320.916C38.4051 326.818 34.6237 332.709 31.1502 338.759C29.8178 341.073 28.9035 343.748 28.4228 346.37C27.4008 351.92 29.7418 354.371 35.5141 353.995C37.1857 353.89 38.9033 353.341 40.4305 352.637C42.2873 351.778 43.9712 350.555 45.7189 349.464C46.8841 348.737 47.9568 347.857 49.1581 347.21C51.5812 345.897 53.1814 346.649 53.6237 349.247C53.8481 350.591 53.8156 351.984 54.1691 353.283C54.8426 355.731 55.4649 358.237 56.5772 360.494C59.2195 365.905 61.1677 364.435 63.8004 361.716C65.1064 360.37 66.4236 358.986 67.9268 357.875C70.0054 356.332 72.1915 356.632 73.8932 358.604C74.8897 359.759 75.6834 361.095 76.5282 362.373C77.2701 363.518 77.9016 364.729 78.6737 365.855C80.2931 368.191 82.5991 369.217 85.3946 368.7C90.1949 367.822 94.2156 365.758 96.1408 360.975C96.7136 359.562 97.1804 358.096 97.5595 356.617C98.5509 352.669 99.4847 348.689 100.389 344.718C100.565 343.943 100.468 343.118 100.509 342.032C83.735 335.991 68.2836 327.903 55.0268 316.219ZM206.349 288.438C205.075 291.565 204.071 294.276 202.884 296.892C197.712 308.229 191.524 318.924 182.632 327.935C179.533 331.082 179.418 332.818 181.674 336.503C184.826 341.655 189.423 345.161 195.192 346.98C201.125 348.845 205.27 346.885 207.503 341.223C208.564 338.553 210.241 337.509 213.009 337.742C213.859 337.813 214.733 337.806 215.588 337.74C219.396 337.448 220.902 335.477 219.866 331.967C219.482 330.687 218.801 329.474 218.17 328.274C217.538 327.073 216.706 325.964 216.134 324.745C215.298 322.963 216.326 321.192 218.264 321.038C219.464 320.935 220.674 321.109 221.874 321.025C223.408 320.925 224.99 320.866 226.457 320.446C229.779 319.493 231.302 317.345 231.034 314.002C230.914 312.514 230.59 310.94 229.923 309.619C229.01 307.814 227.931 305.984 226.502 304.585C222.234 300.409 217.814 296.376 213.322 292.419C211.423 290.726 209.248 289.338 206.349 288.438ZM259.941 406.817C257.369 402.962 255.499 399.974 251.376 399.532C250.262 399.411 249.326 398.991 248.984 397.9C248.565 396.539 249.431 395.672 250.449 394.938C251.568 394.14 252.733 393.422 253.814 392.573C255.228 391.479 255.99 390.004 256.242 388.234C256.664 385.362 255.646 383.988 252.663 384.005C246.718 384.018 241.6 386.308 237.098 389.966C236.329 390.58 235.479 391.547 235.368 392.423C234.981 395.681 232.866 397.936 230.973 400.288C230.181 401.266 229.665 402.206 229.463 403.415C228.89 406.934 228.209 410.439 227.695 413.97C227.22 417.206 227.709 420.399 228.622 423.519C228.797 424.099 229.282 424.76 229.82 425.057C232.127 426.331 235.227 425.004 235.815 422.415C236.131 421.042 236.215 419.592 237.893 419.299C239.927 418.94 240.529 420.417 240.991 421.977C241.479 423.617 242.815 423.836 244.269 423.772C245.457 423.727 246.268 422.779 245.944 421.728C245.531 420.437 244.822 419.223 244.547 417.917C244.397 417.21 244.663 416.122 245.171 415.656C245.669 415.2 246.783 415.045 247.482 415.249C248.617 415.578 249.609 416.338 250.688 416.863C251.911 417.463 253.154 418.063 254.441 418.527C254.819 418.66 255.651 418.454 255.779 418.172C256.024 417.647 256.164 416.802 255.896 416.367C255.378 415.516 254.601 414.785 253.831 414.133C253.051 413.471 252.108 412.99 251.297 412.366C249.82 411.223 249.314 410.057 249.779 408.917C250.309 407.582 251.512 407.42 252.751 407.338C254.778 407.177 256.814 407.036 259.941 406.817ZM49.9879 312.202C49.4342 311.271 49.2466 310.78 48.9167 310.421C41.1289 302.009 35.6975 292.231 31.7102 281.608C31.2467 280.364 30.466 279.207 29.6326 278.147C29.1458 277.526 28.3226 276.981 27.5542 276.803C24.7153 276.123 21.9566 276.444 19.9302 278.692C18.5795 280.184 17.3182 281.907 16.5532 283.737C15.648 285.909 15.352 288.311 14.7464 290.602C13.2581 296.292 15.3396 300.959 19.1797 305.03C21.9253 307.942 25.3427 309.939 29.1816 311.162C33.3109 312.484 37.5721 313.169 41.8968 313.203C44.4463 313.23 47.0505 313.367 49.9879 312.202ZM70.6005 438.181C70.9332 437.68 71.452 437.185 71.6113 436.598C72.0663 434.924 72.0214 433.241 71.1786 431.646C69.7597 428.933 68.3506 426.219 66.9219 423.505C64.9164 419.691 62.2494 416.515 58.5641 414.072C51.0881 409.123 42.812 407.466 34.0075 407.61C33.8406 407.613 33.6722 407.656 33.4944 407.689C31.6663 408.046 30.8551 409.538 31.7687 411.076C33.8901 414.676 36.9035 416.985 41.3138 417.092C42.3427 417.121 43.3946 417.062 44.4093 417.209C45.4823 417.368 46.3527 417.964 46.485 419.146C46.617 420.338 45.9311 421.103 44.8414 421.388C43.8605 421.648 42.8022 421.618 41.8036 421.828C40.8151 422.028 39.7019 422.154 38.9164 422.698C36.5087 424.388 34.7388 426.596 33.8965 429.966C35.3917 429.854 36.6031 429.989 37.6464 429.633C39.425 429.027 41.0798 428.061 42.8236 427.335C44.2386 426.746 45.6743 426.127 47.1687 425.778C48.7323 425.412 50.265 427.18 49.7281 428.683C49.2686 429.951 48.4805 431.089 47.9434 432.334C46.9441 434.66 45.9538 437.007 45.0897 439.387C44.8156 440.158 44.8262 441.187 45.8327 441.551C46.4134 441.761 47.3429 441.826 47.7669 441.505C48.9681 440.601 50.0863 439.555 51.042 438.395C51.6692 437.627 51.8201 436.476 52.4378 435.698C52.9114 435.103 53.7982 434.473 54.494 434.49C55.1703 434.505 56.0769 435.182 56.436 435.809C57.181 437.132 57.5257 438.668 58.2508 440.001C58.9849 441.354 59.9687 442.588 62.0922 442.203C62.4199 441.572 63.0052 440.872 63.152 440.097C63.4335 438.604 63.4908 437.073 63.5775 435.544C63.6791 433.876 63.3278 431.994 65.5584 431.366C66.8772 430.99 67.6645 431.969 68.3511 434.853C68.6539 436.199 68.8187 437.561 70.6005 438.181ZM208.086 277.951C208.905 278.071 209.108 278.168 209.208 278.102C209.649 277.842 210.11 277.592 210.477 277.23C216.016 271.821 220.791 265.84 224.709 259.193C227.379 254.675 228.467 249.722 228.738 244.589C229.012 239.358 227.038 234.972 223.099 231.431C220.945 229.491 218.408 228.614 215.518 228.782C212.008 228.977 210.204 230.788 210.173 234.238C210.16 235.385 210.429 236.572 210.76 237.682C212.985 245.064 213.065 252.386 210.398 259.683C209.993 260.795 209.577 261.946 209.455 263.119C208.939 268.005 208.539 272.905 208.086 277.951ZM51.2458 267.331C64.8179 262.728 80.4511 245.258 80.9133 234.743C80.6043 234.613 80.2899 234.364 79.9953 234.372C69.7931 234.641 62.0528 239.374 56.0602 247.208C55.555 247.862 55.2493 248.691 54.9451 249.48C52.8423 255.078 52.24 260.95 51.2458 267.331ZM172.143 374.407C173.777 373.984 175.484 373.732 177.037 373.108C179.059 372.294 179.611 370.92 178.711 369.008C176.685 364.708 174.598 360.427 172.412 356.201C171.113 353.699 169.15 353.477 167.034 355.474C164.716 357.661 163.535 360.396 162.977 363.5C162.247 367.527 167.534 374.372 172.143 374.407ZM200.571 231.068C196.282 222.194 182.244 216.454 171.828 219.82C172.771 221.081 173.678 222.273 174.564 223.493C177.094 226.941 180.47 228.996 184.668 230.054C189.76 231.334 194.882 231.042 200.571 231.068ZM199.921 426.098C198.852 421.647 197.375 417.339 195.709 413.103C194.401 409.77 190.903 409.154 188.251 411.586C183.061 416.335 183.52 422.672 189.371 426.482C190.223 427.038 191.126 427.547 192.062 427.968C195.091 429.348 197.673 428.763 199.921 426.098ZM93.8307 436.84C98.3114 438.473 102.31 438.06 106.129 435.602C108.712 433.939 109.693 431.593 109.292 428.68C108.884 425.698 107.624 423.188 104.661 421.88C101.217 420.346 97.0245 422.275 96.1745 425.852C95.3339 429.44 94.6387 433.073 93.8307 436.84ZM143.861 522.222C144.434 519.761 143.488 518.054 141.965 516.543C140.338 514.919 138.337 513.875 136.105 513.494C130.959 512.589 125.8 512.839 120.724 514.013C119.516 514.294 118.52 514.969 118.486 516.391C123.996 521.712 135.567 524.462 143.861 522.222ZM238.665 487.527C245.271 485.561 252.275 479.554 254.528 473.863C255.145 472.314 255.425 470.604 255.585 468.948C255.668 468.032 255.194 467.074 254.939 466.026C252.387 465.812 250.809 467.097 249.316 468.445C244.443 472.831 241.032 478.261 238.071 483.994C237.489 485.129 237.554 486.269 238.665 487.527ZM157.955 454.929C155.666 449.522 153.905 447.567 150.041 446.225C148.947 445.848 147.69 445.612 146.557 445.748C141.551 446.351 137.598 450.543 136.787 456.229C143.815 456.622 150.724 456.289 157.955 454.929ZM111.585 364.266C110.892 366.801 110.384 368.572 109.945 370.355C108.964 374.294 107.983 378.223 107.089 382.175C106.784 383.528 107.854 384.547 109.127 384.338C116.364 383.098 119.344 378.7 117.873 371.613C117.408 369.36 116.38 367.463 114.681 365.955C113.988 365.345 113.009 365.021 111.585 364.266ZM147.785 346.373C143.145 346.653 139.033 347.23 134.69 347.413C134.83 349.446 135.956 350.527 137.234 351.247C138.368 351.883 139.788 352.471 141.037 352.389C144.449 352.161 146.337 349.938 147.785 346.373Z" fill="#664E2B"/>
<path fill-rule="evenodd" clip-rule="evenodd" d="M160.84 404.61C160.67 407.046 159.707 409.71 157.594 411.895C153.778 415.846 149.085 417.519 143.59 417.035C139.982 416.721 137.751 414.491 135.834 411.709C132.829 407.334 132.74 396.887 137.965 391.733C141.825 387.923 147.346 386.934 152.174 389.499C157.85 392.501 161.108 397.964 160.84 404.61ZM138.006 402.702C138.104 405.564 138.514 408.24 140.485 410.371C141.362 411.314 142.591 412.27 143.808 412.533C151.134 414.134 157.689 407.547 155.912 400.488C155.263 397.922 153.759 395.918 151.58 394.372C147.251 391.301 141.748 392.597 139.529 397.38C138.77 399.042 138.503 400.931 138.006 402.702Z" fill="#664E2B"/>
<path fill-rule="evenodd" clip-rule="evenodd" d="M147.615 288.029C148.83 288.074 149.006 288.081 149.173 288.087C154.415 288.245 155.117 289.152 154.075 294.186C153.143 298.65 152.327 303.149 151.365 307.623C149.12 318.061 142.269 320.266 134.128 319.712C128.463 319.331 124.408 316.785 121.513 312.116C118.737 307.651 117.725 302.717 117.407 297.592C117.296 295.847 117.884 294.277 118.764 292.787C119.622 291.346 120.77 290.816 122.531 290.674C128.69 290.184 134.83 289.436 140.966 288.767C143.527 288.488 146.079 288.198 147.615 288.029ZM122.485 297.16C122.119 300.647 122.914 303.783 124.196 306.739C126.823 312.821 130.032 315.671 138.42 314.869C142.515 314.479 145.153 312.393 146.104 308.493C147.137 304.21 147.976 299.89 148.834 295.571C148.99 294.805 148.873 293.99 148.893 292.932C147.548 292.971 146.549 292.923 145.563 293.054C140.783 293.656 136.034 294.466 131.242 294.879C128.29 295.124 125.495 295.622 122.485 297.16Z" fill="#664E2B"/>
<path fill-rule="evenodd" clip-rule="evenodd" d="M178.426 249.015C178.166 253.09 175.61 255.585 172.124 255.681C168.392 255.798 165.44 253.432 164.956 249.833C164.826 248.849 164.895 247.804 165.05 246.82C165.569 243.428 166.947 241.72 169.435 241.309C172.563 240.804 175.185 241.525 177.003 244.313C178.06 245.945 178.535 247.684 178.426 249.015Z" fill="#664E2B"/>
<path fill-rule="evenodd" clip-rule="evenodd" d="M98.1164 266.8C97.9456 271.362 94.7126 274.395 90.1757 274.264C85.6486 274.133 82.2058 270.978 82.4179 267.148C82.6559 262.885 86.7687 258.886 90.7969 258.978C94.4522 259.076 98.2539 263.126 98.1164 266.8Z" fill="#664E2B"/>
<path fill-rule="evenodd" clip-rule="evenodd" d="M407.426 91.0811C406.402 91.5385 405.36 92.0284 404.303 92.4735C401.606 93.6172 398.807 92.8463 397.172 90.4416C396.633 89.6532 396.275 88.7337 395.866 87.8619C395.618 87.3387 395.482 86.7592 395.222 86.2466C394.72 85.2442 393.641 84.9926 392.82 85.6954C392.311 86.134 391.911 86.704 391.392 87.1312C389.211 88.9079 385.991 88.7282 384.057 86.6819C382.249 84.7731 381.41 82.4102 381.374 79.8078C381.357 78.5591 381.629 77.3105 381.809 76.0639C381.876 75.5861 382.14 75.1269 382.148 74.6577C382.148 74.216 382.056 73.6215 381.765 73.3728C381.479 73.1298 380.841 73.0775 380.458 73.2229C379.742 73.4824 379.101 73.9435 378.43 74.3207C376.859 75.1987 375.175 75.4429 373.411 75.2422C369.957 74.8546 368.183 72.9305 368.279 69.4551C368.306 68.3131 368.641 67.1718 368.865 66.0374C368.939 65.6648 369.227 65.2948 369.197 64.9458C369.165 64.5082 368.993 63.999 368.704 63.6952C368.509 63.4889 367.963 63.4843 367.636 63.5876C367.193 63.7251 366.818 64.0806 366.394 64.3017C364.859 65.0983 363.372 66.0459 361.763 66.6408C357.124 68.3446 353.42 65.8047 353.171 60.7808C353.117 59.6411 353.391 58.481 353.551 57.333C353.618 56.8607 353.91 56.386 353.867 55.937C353.828 55.5213 353.56 54.9587 353.233 54.7914C352.889 54.6235 352.331 54.7897 351.909 54.939C351.682 55.0186 351.542 55.3667 351.364 55.5917C349.471 57.9926 346.84 59.1223 344.025 59.9302C343.842 59.9838 343.649 60.0206 343.462 60.0465C339.551 60.6187 336.872 58.4497 336.676 54.4495C336.589 52.6072 336.698 50.767 337.244 48.9712C337.469 48.2399 337.598 47.4552 337.627 46.6887C337.666 45.7017 336.627 45.1259 335.791 45.6458C335.225 45.9995 334.751 46.5113 334.185 46.8704C332.968 47.6407 331.766 48.4502 330.478 49.0741C329.14 49.7237 327.688 49.6455 326.24 49.3299C324.059 48.8646 322.767 47.5997 322.598 44.7602C322.436 42.0259 323.502 39.6428 325.207 37.544C325.667 36.9819 326.261 36.7619 326.969 36.6954C327.968 36.596 328.849 36.1827 329.402 35.315C329.641 34.9432 329.82 34.4199 329.764 34.0036C329.686 33.3545 329.08 33.0218 328.501 33.016C327.856 33.0076 327.135 33.1012 326.566 33.3885C325.545 33.9013 324.595 34.1406 323.575 33.4937C322.379 32.7296 321.545 31.6812 321.371 30.2442C321.051 27.6087 321.603 25.2278 323.564 23.3046C325.498 21.4079 327.833 20.2943 330.471 19.9766C332.56 19.7205 334.681 19.7583 336.785 19.674C337.168 19.6612 337.559 19.7426 337.932 19.6963C338.889 19.5841 339.583 18.744 339.202 17.8567C338.574 16.3966 339.07 15.1788 339.68 13.9764C341.291 10.7805 343.68 8.27737 346.747 6.49625C347.642 5.97862 348.694 5.64931 349.719 5.47354C352.891 4.91695 354.581 5.76647 356.202 8.55166C358.023 11.687 358.369 11.8052 361.156 9.61019C363.447 7.80459 365.987 6.90877 368.874 6.79399C370.995 6.71029 373.123 6.56616 375.192 7.08245C376.477 7.40269 377.783 7.85633 378.916 8.53522C380.665 9.58028 381.668 11.2095 381.624 13.356C381.61 13.8414 381.514 14.3458 381.617 14.8026C381.721 15.2373 381.947 15.7541 382.288 15.9937C382.804 16.3506 383.388 16.1246 383.853 15.6953C383.995 15.5627 384.147 15.4416 384.268 15.2916C386.682 12.4084 389.898 12.1352 393.242 12.6841C395.536 13.06 397.6 14.1338 399.388 15.705C401.166 17.2593 402.088 19.167 402.111 21.5591C402.138 24.8017 402.165 24.8249 405.163 25.6752C408.848 26.7179 412.069 28.5874 414.873 31.1754C415.645 31.8845 416.362 32.713 416.879 33.6221C418.038 35.6438 417.768 37.2349 416.161 38.8957C415.825 39.2417 415.41 39.5128 415.09 39.8649C414.302 40.7236 414.389 41.7265 415.322 42.3479C415.882 42.723 416.506 42.9901 417.095 43.3221C418.873 44.3131 420.535 45.4708 421.927 46.9659C422.584 47.6651 423.233 48.4136 423.699 49.2434C424.799 51.1967 424.718 53.1484 423.309 54.9494C422.831 55.555 422.285 56.1082 421.775 56.6904C420.693 57.9408 420.569 59.3056 421.401 60.7183C421.986 61.7184 422.654 62.672 423.273 63.6513C423.891 64.6361 424.549 65.6003 425.067 66.6309C425.402 67.3066 425.585 68.0868 425.715 68.8373C425.88 69.799 425.483 70.5734 424.577 70.9636C423.787 71.3085 422.961 71.5803 422.136 71.8356C421.4 72.0612 420.625 72.1582 419.909 72.4288C418.177 73.0742 417.631 74.4668 418.468 76.1559C418.808 76.8427 419.287 77.4632 419.744 78.0883C420.253 78.7928 420.841 79.4451 421.338 80.1546C423.226 82.8396 423.178 84.7982 421.043 87.2394C418.582 90.0545 415.571 91.7881 411.709 91.6498C410.95 91.6205 410.171 91.8168 409.419 91.7325C408.761 91.6297 408.145 91.3132 407.426 91.0811Z" fill="#86604F"/>
<path fill-rule="evenodd" clip-rule="evenodd" d="M324.155 51.3092C327.623 52.5864 330.856 52.1482 334.208 50.0633C334.185 51.6529 334.178 52.6853 334.149 53.7113C334.096 55.4985 334.436 57.196 335.305 58.7537C336.456 60.8194 338.141 62.105 340.517 62.473C342.883 62.8405 345.108 62.4406 347.278 61.4974C348.229 61.0868 349.175 60.6816 350.326 60.1905C350.493 60.832 350.607 61.2727 350.716 61.7131C350.906 62.4605 351.029 63.2384 351.296 63.9611C353.013 68.5226 356.452 70.5608 361.668 69.3377C362.872 69.0584 364.015 68.5007 365.391 68.0017C365.487 68.6129 365.593 69.125 365.644 69.6461C366.149 75.1217 368.76 77.6249 374.254 77.7378C375.675 77.7652 377.102 77.5111 378.633 77.3715C379.23 78.0738 378.878 78.9769 378.868 79.7883C378.841 82.2005 379.532 84.4031 380.717 86.4314C381.872 88.4033 383.422 89.9101 385.728 90.5515C387.784 91.1225 389.714 91.0204 391.601 90.0276C392.177 89.724 392.752 89.4038 393.406 89.0536C393.95 89.9858 394.398 90.837 394.925 91.6416C396.584 94.1631 398.912 95.4847 401.928 95.5847C403.223 95.6292 404.41 95.3327 405.524 94.6965C406.184 94.3189 406.823 93.9019 407.429 93.5332C408.135 93.9305 407.843 94.4217 407.691 94.819C406.347 98.1633 404.606 101.304 402.577 104.263C400.171 107.776 397.691 111.237 394.754 114.326C390.306 118.997 385.313 122.919 379.403 125.512C374.312 127.745 369.002 128.832 363.397 128.632C358.18 128.447 353.045 127.828 347.964 126.677C342.264 125.379 337.137 122.884 332.287 119.571C327.378 116.217 323.69 111.844 320.606 106.865C317.048 101.128 315.518 94.7234 315.119 88.059C314.671 80.5534 315.374 73.1199 317.134 65.799C318.361 60.6665 320.82 55.4988 324.155 51.3092ZM339.629 97.4724C339.541 100.313 339.821 103.107 340.487 105.85C341.539 110.181 345.755 114.044 349.939 114.631C355.01 115.341 359.11 113.71 361.762 109.229C363.43 106.411 364.804 103.399 366.108 100.385C367.057 98.185 366.459 96.969 364.317 95.9143C363.716 95.6204 363.079 95.397 362.436 95.1954C360.603 94.622 358.759 94.0703 356.92 93.5298C351.83 92.0353 346.539 91.6374 341.34 90.7019C341.036 90.646 340.35 91.144 340.305 91.4571C340.009 93.4503 339.838 95.4648 339.629 97.4724ZM337.664 77.5436C337.634 77.2056 337.603 76.7239 337.523 76.2459C337.306 74.9122 336.664 73.8381 335.369 73.3904C333.911 72.8867 332.5 73.158 331.312 74.1724C329.785 75.4773 329.161 78.8771 330.116 80.637C330.825 81.9511 331.933 82.5848 333.442 82.4609C335.725 82.2786 337.573 80.1908 337.664 77.5436ZM375.06 92.6904C374.793 94.9111 376.386 97.4301 378.179 97.6209C379.966 97.8115 382.272 96.1612 382.505 94.5245C382.826 92.3004 381.311 90.0439 379.283 89.728C377.14 89.3967 375.301 90.6841 375.06 92.6904Z" fill="#CCA18F"/>
<path fill-rule="evenodd" clip-rule="evenodd" d="M390.565 198.071C388.844 199.435 384.695 201.478 382.875 201.86C381.336 202.182 380.479 201.851 379.767 200.464C379.278 199.523 378.89 198.52 378.552 197.507C378.115 196.226 377.794 194.905 377.39 193.608C376.86 191.903 376.53 191.658 374.74 191.545C374.26 191.515 373.775 191.452 373.298 191.489C369.028 191.86 364.883 190.965 360.712 190.307C358.434 189.942 356.142 189.655 353.87 189.28C352.451 189.048 351.022 188.811 349.643 188.404C348.501 188.067 347.629 188.431 347.048 189.58C346.829 190.013 346.685 190.482 346.482 190.916C345.056 193.992 343.683 197.092 342.16 200.121C340.833 202.764 340.399 202.946 337.608 202.126C335.038 201.375 332.52 200.438 330.176 199.652C329.598 198.619 329.846 197.861 330.136 197.154C330.613 195.991 331.187 194.864 331.735 193.726C333.027 191.014 334.318 188.303 335.621 185.598C336.162 184.476 336.752 183.377 337.39 182.143C339.328 182.395 341.117 182.663 342.921 182.859C353.358 184.003 363.813 184.821 374.281 183.315C377.114 182.911 379.874 181.996 382.928 181.258C383.161 181.582 383.618 182.069 383.881 182.637C386.13 187.573 388.345 192.529 390.555 197.48C390.614 197.659 390.556 197.877 390.565 198.071Z" fill="#FFE7A4"/>
<path fill-rule="evenodd" clip-rule="evenodd" d="M336.241 167.608C336.24 164.378 336.916 161.19 337.483 157.981C338.956 157.784 340.153 158.095 341.349 158.445C347.196 160.157 353.184 160.913 359.247 161.164C361.262 161.248 363.27 161.237 365.262 160.789C368.077 160.158 370.929 159.821 373.809 159.607C375.987 159.448 378.135 158.929 380.31 158.566C381.215 160.346 382.563 166.091 382.767 169.153C375.41 171.829 367.821 172.286 360.11 171.392C353.623 170.638 347.144 169.847 340.672 169.028C339.174 168.848 337.589 168.826 336.241 167.608Z" fill="#DDF4E4"/>
<path fill-rule="evenodd" clip-rule="evenodd" d="M338.002 154.832C338.191 152.067 338.657 149.363 339.245 146.613C343.801 147.181 348.077 147.656 352.338 148.257C356.554 148.851 360.747 148.924 364.953 148.231C365.52 148.137 366.093 148.032 366.668 148.021C370.401 147.961 374.128 147.918 377.992 147.874C378.937 150.18 379.306 152.657 379.952 155.206C379.485 155.525 379.076 155.934 378.576 156.119C377.138 156.671 375.655 156.967 374.097 157.083C371.518 157.271 368.913 157.463 366.392 158.001C363.055 158.711 359.744 158.749 356.378 158.508C350.415 158.079 344.63 156.728 338.861 155.252C338.596 155.192 338.362 155.017 338.002 154.832Z" fill="#28E7B1"/>
<path fill-rule="evenodd" clip-rule="evenodd" d="M335.222 178.79C335.153 175.899 335.304 173.415 335.777 170.815C337.108 171.033 338.314 171.261 339.533 171.419C345.063 172.141 350.585 172.934 356.131 173.519C360.141 173.944 364.183 174.244 368.218 174.295C372.259 174.346 376.27 173.756 380.19 172.687C381.202 172.411 382.182 172.096 383.153 172.172C383.299 172.36 383.405 172.43 383.413 172.514C384.189 178.204 383.687 178.013 379.096 179.62C377.205 180.281 375.193 180.656 373.203 180.932C366.504 181.855 359.781 181.706 353.047 181.274C348.054 180.96 343.077 180.497 338.157 179.577C337.234 179.398 336.332 179.087 335.222 178.79Z" fill="#28E7B1"/>
<path fill-rule="evenodd" clip-rule="evenodd" d="M438.424 100.757C439.014 101.901 438.71 102.822 438.331 103.724C438.066 104.349 437.704 104.932 437.456 105.557C437.226 106.134 437.25 106.781 437.8 107.117C438.148 107.323 438.732 107.368 439.12 107.234C440.023 106.921 440.858 106.406 441.753 106.06C442.275 105.854 442.862 105.81 443.341 105.713C444.15 106.313 443.948 107.001 443.673 107.603C443.182 108.7 442.315 109.472 441.276 110.034C440.684 110.354 440.071 110.634 439.484 110.97C438.952 111.275 438.529 111.761 438.713 112.376C438.828 112.784 439.205 113.229 439.581 113.415C440.354 113.792 441.223 113.959 442.014 114.304C442.686 114.6 443.453 114.862 443.643 115.731C442.982 116.71 441.901 116.514 441.014 116.806C440.383 117.008 439.687 117.041 439.065 117.266C438.283 117.55 438.007 118.467 438.46 119.197C438.815 119.769 439.277 120.273 439.638 120.844C439.839 121.161 439.928 121.551 440.063 121.888C439.051 123.152 437.902 123.312 436.432 122.841C433.887 122.025 431.741 120.661 429.992 118.638C429.803 118.421 429.587 118.208 429.46 117.955C427.315 113.719 425.209 109.479 425.911 104.47C426.092 103.201 426.428 102.005 427.072 100.909C427.306 100.515 427.695 100.215 428.038 99.8473C429.875 100.719 430.468 102.36 431.039 104.006C431.261 104.638 431.332 105.331 431.599 105.933C431.931 106.674 433.101 106.708 433.506 105.995C433.787 105.498 433.925 104.924 434.147 104.396C434.998 102.353 436.068 101.422 438.424 100.757Z" fill="#CCA18F"/>
<path fill-rule="evenodd" clip-rule="evenodd" d="M286.844 77.689C289.014 78.4466 291.26 80.3614 292.6 82.6331C292.892 83.1304 293.078 83.6898 293.36 84.1977C293.662 84.734 294.112 85.1049 294.767 84.9976C295.456 84.8807 295.662 84.3475 295.681 83.7242C295.692 83.1448 295.6 82.5559 295.682 81.9902C295.967 79.8586 297.952 78.1792 300.113 78.1799C300.852 78.1809 301.479 78.6414 301.467 79.3809C301.45 80.5344 301.469 81.7446 301.126 82.8192C300.392 85.1157 299.447 87.3489 298.551 89.5894C298.115 90.677 297.567 91.6885 296.367 92.1668C295.8 92.3933 295.652 92.9564 295.503 93.5636C294.598 97.1679 291.256 99.8495 287.591 99.9729C287.334 99.985 287.067 99.8145 286.629 99.6651C286.819 98.9987 286.969 98.375 287.189 97.7705C287.355 97.3186 287.704 96.9234 287.803 96.4689C287.896 96.0417 287.89 95.5003 287.702 95.123C287.402 94.5261 286.762 94.54 286.177 94.6775C285.619 94.8106 285.083 95.077 284.522 95.1548C283.368 95.3144 282.197 95.3188 281.189 94.6283C280.827 94.3768 280.338 93.8719 280.389 93.5536C280.468 93.0596 280.854 92.4009 281.282 92.2241C282.049 91.9114 282.951 91.9352 283.779 91.7518C284.535 91.5878 284.827 90.3897 284.251 89.8649C283.976 89.6168 283.61 89.4701 283.301 89.2594C282.826 88.9373 282.324 88.6417 281.912 88.2503C281.405 87.7724 281.067 87.1794 281.391 86.4354C281.716 85.6804 282.222 85.0538 283.085 85.0706C283.938 85.087 284.797 85.2307 285.626 85.4339C286.173 85.5655 286.68 85.8889 287.19 86.1571C287.774 86.4723 288.312 86.4214 288.767 85.964C289.24 85.4908 289.162 84.9466 288.878 84.3724C288.204 82.9933 287.513 81.6136 286.928 80.1884C286.558 79.2905 286.636 79.2603 286.844 77.689Z" fill="#CCA18F"/>
<path fill-rule="evenodd" clip-rule="evenodd" d="M376.434 139.226C377.283 141.042 377.184 142.888 377.564 144.803C376.927 145.016 376.412 145.31 375.886 145.345C374.641 145.424 373.386 145.326 372.142 145.383C369.27 145.52 366.398 145.68 363.529 145.884C360.945 146.071 358.374 146.358 355.772 146.031C351.868 145.543 347.95 145.154 344.039 144.716C342.617 144.556 341.203 144.341 339.819 143.636C339.799 141.625 340.34 139.785 340.643 137.759C341.185 137.747 341.66 137.627 342.071 137.742C349.02 139.69 356.133 139.512 363.241 139.461C364.773 139.454 366.309 139.491 367.829 139.661C369.653 139.864 371.455 139.955 373.269 139.589C374.289 139.38 375.335 139.343 376.434 139.226Z" fill="#DDF4E4"/>
<path fill-rule="evenodd" clip-rule="evenodd" d="M375.92 136.384C373.638 137.118 371.49 137.356 369.268 137.226C366.594 137.067 363.909 136.886 361.232 136.942C356.234 137.042 351.251 137.009 346.32 136.095C344.647 135.782 342.921 135.577 341.287 134.542C341.638 132.386 341.543 130.167 342.614 127.956C352.928 130.729 363.287 132.184 373.98 130.251C374.894 132.219 375.401 134.238 375.92 136.384Z" fill="#28E7B1"/>
<path fill-rule="evenodd" clip-rule="evenodd" d="M312.484 75.1517C310.895 74.6595 310.11 73.3148 309.413 71.946C308.214 69.5802 307.645 67.0179 307.506 64.3839C307.392 62.2479 307.535 60.1163 308.129 58.0352C308.534 56.6151 309.137 55.3075 310.164 54.2317C311.127 53.2252 312.27 52.9601 313.594 53.3868C316.09 54.1902 317.509 56.6859 316.589 59.1133C314.791 63.8649 313.775 68.7846 313.138 73.8019C313.1 74.0876 313.023 74.3718 312.909 74.638C312.842 74.8121 312.673 74.9326 312.484 75.1517Z" fill="#CCA18F"/>
<path fill-rule="evenodd" clip-rule="evenodd" d="M298.474 211.006C298.58 210.375 298.625 209.785 298.783 209.228C299.689 206.033 301.122 203.078 302.936 200.31C303.645 199.228 304.666 198.847 305.893 198.817C306.845 198.793 307.566 199.109 307.985 200.03C308.267 200.649 308.583 201.252 308.944 201.824C309.449 202.622 309.505 203.436 309.273 204.332C309.035 205.273 308.872 206.228 308.655 207.175C307.95 210.267 306.18 212.596 303.633 214.386C302.498 215.176 301.314 215.357 300.104 214.697C298.882 214.037 298.423 212.892 298.448 211.529C298.456 211.336 298.469 211.143 298.474 211.006Z" fill="#28E7B1"/>
<path fill-rule="evenodd" clip-rule="evenodd" d="M403.334 107.949C404.842 105.451 406.134 103.43 407.299 101.332C408.421 99.3211 409.405 97.233 410.47 95.1315C412.194 94.9828 413.803 95.2604 415.323 95.8272C417.281 96.5545 417.928 97.927 417.433 99.9843C417.302 100.537 417.056 101.085 416.769 101.582C416.047 102.863 415.086 103.947 413.878 104.778C410.871 106.843 407.519 107.807 403.334 107.949Z" fill="#CCA18F"/>
<path fill-rule="evenodd" clip-rule="evenodd" d="M415.255 205.934C416.385 206.988 417.43 207.978 418.492 208.958C420.081 210.433 420.786 212.283 420.687 214.427C420.632 215.579 420.515 216.751 420.237 217.867C420.082 218.48 419.6 219.046 419.16 219.532C418.703 220.039 417.828 220.027 417.333 219.538C416.927 219.142 416.524 218.684 416.297 218.179C414.861 214.986 413.952 211.632 413.534 208.148C413.401 207.05 413.836 206.271 415.255 205.934Z" fill="#28E7B1"/>
<path fill-rule="evenodd" clip-rule="evenodd" d="M329.252 79.642C324.915 77.3372 319.35 78.2431 316.544 82.4862C314.521 85.5502 315.076 90.0281 317.097 93.0718C318.139 95.2823 320.137 97.066 322.455 97.6692C327.292 98.9331 331.57 96.0833 333.501 91.7124C335.407 87.4124 333.283 81.7804 329.252 79.642Z" fill="#EBC6B6"/>
<path fill-rule="evenodd" clip-rule="evenodd" d="M394.429 101.242C392.98 97.9498 389.97 96.2927 386.643 96.1696C384.801 95.8609 382.862 96.0565 381.161 96.7694C375.85 98.9939 374.98 105.802 378.199 110.124C381.111 114.036 386.826 115.488 391.009 112.707C394.76 110.217 396.274 105.427 394.429 101.242Z" fill="#EBC6B6"/>
<path fill-rule="evenodd" clip-rule="evenodd" d="M318.968 54.4729C320.02 52.7298 320.914 51.2458 321.744 49.8752C321.694 49.6027 321.709 49.4928 321.657 49.4245C319.206 45.7568 319.803 42.0744 321.608 38.389C321.947 37.6952 322.355 37.0373 322.784 36.2697C322.255 35.8129 321.752 35.3793 321.249 34.9512C319.703 33.6158 318.867 31.8936 318.731 29.8783C318.526 26.8441 319.316 24.1024 321.443 21.8487C324.478 18.6305 328.319 17.3377 332.604 17.161C333.65 17.1186 334.707 17.2312 335.608 17.2661C335.898 17.0012 336.132 16.8942 336.154 16.746C336.901 12.2742 339.506 8.98968 342.795 6.14027C343.451 5.56925 344.155 5.05527 344.884 4.58645C346.707 3.41993 348.712 2.79057 350.881 2.7143C353.576 2.61418 355.752 3.64261 357.404 5.78286C357.93 6.46036 358.406 7.16907 358.909 7.8733C359.266 7.69934 359.548 7.61636 359.773 7.44836C365.321 3.3278 371.46 3.43815 377.698 5.09305C380.389 5.80456 382.448 7.60711 383.591 10.291C383.742 10.6392 383.92 10.9774 384.052 11.2531C384.768 11.6895 385.221 11.1547 385.71 10.9528C391.176 8.66247 398.137 10.3066 402.302 15.0512C403.47 16.3831 404.225 17.9475 404.451 19.74C404.567 20.6943 404.684 21.6542 404.812 22.7305C405.539 23.0071 406.245 23.2829 406.958 23.5313C410.547 24.7856 413.767 26.6828 416.566 29.2761C417.274 29.9275 417.947 30.6382 418.507 31.422C420.479 34.1766 420.527 36.8954 418.735 39.8137C418.583 40.0619 418.421 40.2986 418.165 40.6863C418.659 41.0864 419.122 41.5627 419.672 41.8932C421.426 42.955 422.989 44.2525 424.297 45.8051C425.155 46.8213 425.947 47.984 426.43 49.2176C427.404 51.7348 427.031 54.1833 425.393 56.3676C424.758 57.2101 424.066 58.0006 423.302 58.9375C423.899 59.8994 424.445 60.7985 425.001 61.6926C425.717 62.8413 426.494 63.9537 427.143 65.144C427.557 65.9 427.875 66.7351 428.072 67.5766C428.782 70.5696 427.83 72.4159 424.984 73.587C424.189 73.9153 423.324 74.0641 422.494 74.3246C421.957 74.4916 421.434 74.7144 420.773 74.9594C421.144 75.5702 421.409 76.0774 421.735 76.5374C422.244 77.2418 422.821 77.8992 423.329 78.6092C425.93 82.2385 425.795 85.5798 422.908 88.9362C421.7 90.3419 420.308 91.5251 418.681 92.4231C418.111 92.7379 417.566 93.1144 416.994 93.4734C417.209 93.7302 417.311 93.9053 417.455 94.0103C418.647 94.8792 419.721 95.8208 419.949 97.4146C420.215 99.297 419.987 101.094 419.026 102.758C417.683 105.097 415.787 106.863 413.405 108.052C410.444 109.528 407.332 110.495 403.976 110.426C403.21 110.413 402.446 110.367 401.55 110.332C401.007 110.952 400.414 111.581 399.873 112.25C394.786 118.614 388.728 123.77 381.448 127.414C381.286 127.497 381.154 127.657 380.849 127.921C381.232 128.19 381.542 128.528 381.914 128.653C389.128 131.108 396.432 131.357 403.808 129.488C410.663 127.754 417.15 125.106 423.186 121.369C424.424 120.605 425.6 119.783 426.573 118.379C425.96 116.837 425.299 115.238 424.683 113.629C423.331 110.114 422.759 106.525 423.658 102.788C424.029 101.261 424.577 99.8135 425.587 98.599C426.981 96.9299 428.766 96.7504 430.377 98.2209C431.281 99.0455 432.018 100.063 432.904 101.069C433.548 100.536 434.095 99.9827 434.729 99.5764C435.536 99.0665 436.373 98.5134 437.269 98.2554C439.365 97.6682 440.872 98.7261 441.209 100.904C441.315 101.565 441.289 102.243 441.334 103.04C442.099 103.07 442.831 103.093 443.557 103.126C445.212 103.201 446.018 103.873 446.393 105.478C446.773 107.127 446.242 108.548 445.289 109.842C444.781 110.529 444.194 111.147 443.54 111.917C444.191 112.478 444.798 112.921 445.319 113.449C447.109 115.264 446.818 117.268 444.597 118.408C443.843 118.793 443.024 119.054 442.218 119.382C442.382 120.52 442.648 121.547 442.663 122.58C442.684 124.171 442.242 124.568 440.809 125.12C437.46 126.416 434.577 125.145 431.797 123.485C430.572 122.753 429.495 121.762 428.246 120.802C427.175 121.611 426.162 122.494 425.041 123.191C416.83 128.285 408.024 131.777 398.409 133.002C392.169 133.799 386.146 132.826 380.246 130.77C379.269 130.428 378.293 130.076 377.035 129.629C377.051 130.348 376.956 130.836 377.094 131.228C378.663 135.634 379.322 140.238 380.212 144.812C381.38 150.81 382.885 156.738 384.181 162.709C384.877 165.927 385.523 169.166 386.032 172.428C386.361 174.528 386.512 176.693 385.596 178.739C385.183 179.662 385.613 180.419 385.987 181.217C387.468 184.378 388.926 187.544 390.385 190.715C390.748 191.507 391.089 192.31 391.419 193.118C391.997 194.56 392.59 195.936 393.902 196.947C394.895 197.715 394.669 198.899 393.581 199.591C392.285 200.414 390.964 201.196 389.513 202.085C389.64 202.769 389.685 203.433 389.896 204.049C390.614 206.159 391.263 208.31 392.175 210.333C392.926 211.991 393.859 213.629 394.991 215.042C397.241 217.841 400.36 218.243 403.154 216.015C406.653 213.218 409.562 209.879 411.157 205.55C412.025 203.181 414.936 202.306 416.811 203.908C418.272 205.157 419.658 206.525 420.966 207.945C421.606 208.638 422.119 209.514 422.474 210.395C423.657 213.317 423.503 216.305 422.444 219.218C421.661 221.38 420.032 222.477 418.103 222.413C416.765 222.367 415.641 221.854 414.902 220.743C414.318 219.865 413.797 218.911 413.436 217.92C412.831 216.284 412.382 214.599 411.85 212.933C411.685 212.413 411.469 211.913 411.19 211.184C410.416 212.121 409.839 212.888 409.188 213.586C407.933 214.924 406.714 216.313 405.344 217.524C400.806 221.546 395.389 220.177 392.534 216.046C391.441 214.463 390.484 212.753 389.71 210.989C388.815 208.955 388.198 206.8 387.448 204.7C387.29 204.268 387.07 203.857 386.823 203.312C385.804 203.637 384.911 203.95 384.01 204.208C380.763 205.137 378.606 204.165 377.189 201.067C376.67 199.926 376.318 198.703 375.909 197.516C375.56 196.514 375.238 195.502 374.875 194.406C374.19 194.297 373.527 194.056 372.89 194.119C369.096 194.486 365.41 193.604 361.71 193.08C358.576 192.638 355.483 191.867 352.306 191.678C351.356 191.619 350.425 191.368 349.333 191.182C349.067 191.685 348.786 192.166 348.548 192.659C347.027 195.792 345.601 198.984 343.962 202.058C342.281 205.207 341.266 205.57 337.87 204.837C337.219 204.696 336.561 204.588 335.887 204.468C335.124 205.239 335.02 206.229 334.734 207.135C334.08 209.186 333.137 211.077 331.898 212.835C329.125 216.792 324.521 217.177 321.117 215.494C319.104 214.499 317.409 213.064 315.903 211.41C314.539 209.916 313.231 208.369 311.926 206.888C311.183 206.876 311.172 207.422 311.078 207.871C310.247 211.694 307.994 214.5 304.853 216.649C302.937 217.961 300.9 218.153 298.873 216.959C296.877 215.788 295.88 213.988 295.943 211.649C295.966 210.777 296.012 209.884 296.23 209.053C297.215 205.369 298.845 201.981 300.932 198.792C302.176 196.897 303.85 196.045 306.064 196.23C307.105 196.314 308.14 196.431 309.018 196.515C310.214 198.665 311.305 200.591 312.351 202.536C314.072 205.728 316.379 208.457 319.003 210.906C319.911 211.753 320.954 212.511 322.041 213.1C325.037 214.707 327.899 213.994 329.936 211.246C331.586 209.023 332.44 206.472 333.047 203.657C332.44 203.352 331.873 203.026 331.281 202.777C330.393 202.405 329.462 202.143 328.585 201.745C327.51 201.256 326.921 200.355 327.137 199.165C327.36 197.937 327.686 196.701 328.131 195.537C328.617 194.274 329.297 193.091 329.886 191.866C331.47 188.547 333.048 185.223 334.691 181.786C334.391 181.47 334.184 181.159 333.902 180.96C333.023 180.357 332.668 179.482 332.62 178.475C332.577 177.601 332.589 176.729 332.666 175.854C333.281 168.593 334.32 161.388 335.473 154.193C336.367 148.628 337.222 143.067 338.104 137.507C338.422 135.509 338.767 133.518 339.124 131.356C338.404 131.168 337.88 130.998 337.342 130.889C335.16 130.446 333.088 129.714 331.055 128.807C323.015 125.233 316.039 120.18 310.099 113.65C305.476 108.567 300.949 103.417 297.162 97.6429C297.116 97.5694 297.013 97.5377 296.922 97.479C296.173 97.3396 295.95 97.9992 295.665 98.4355C293.995 101.022 291.421 101.96 288.601 102.453C288.044 102.553 287.448 102.547 286.882 102.475C284.966 102.241 284.204 101.422 284.039 99.4715C284.004 99.0946 284.063 98.7103 284.084 98.1479C283.31 97.9468 282.577 97.7969 281.881 97.5602C281.071 97.2859 280.21 97.0428 279.501 96.5791C277.596 95.3237 277.24 93.2169 278.53 91.2677C278.844 90.7939 279.248 90.3787 279.667 89.8703C278.56 88.0769 278.297 86.2664 279.592 84.4445C280.547 83.1118 281.183 82.7885 284.707 82.0467C284.58 81.5006 284.394 80.9577 284.349 80.4093C284.257 79.2571 284.089 78.0799 284.221 76.9418C284.42 75.1769 285.608 74.4386 287.329 74.9359C288.14 75.1716 288.945 75.5837 289.642 76.0746C290.591 76.7298 291.435 77.5355 292.325 78.2768C292.755 78.6358 293.184 79.0003 293.682 79.4172C294.287 78.7558 294.796 78.1846 295.321 77.625C296.587 76.2879 298.202 75.6987 299.969 75.5571C302.103 75.3856 303.634 76.6874 303.988 78.8603C304.257 80.5329 304.007 82.1799 303.541 83.7579C302.429 87.4811 301.047 91.1001 298.63 94.3256C299.002 96.0353 300.064 97.4238 301.066 98.8265C304.61 103.807 308.611 108.407 312.829 112.8C315.027 115.094 317.416 117.235 319.9 119.22C324.065 122.551 328.709 125.116 333.642 127.123C334.967 127.666 336.394 127.964 337.794 128.267C338.564 128.435 338.658 128.284 339.494 126.88C338.955 126.539 338.44 126.133 337.865 125.862C334.002 124.039 330.439 121.676 327.26 118.875C321.747 114.023 317.566 108.118 315.159 101.067C313.094 95.0339 312.268 88.8114 312.509 82.4369C312.561 81.0859 312.614 79.7349 312.666 78.3729C307.298 75.8791 305.848 71.0683 305.171 65.9395C304.783 62.9645 304.874 59.9032 305.888 57.0045C306.331 55.7404 306.895 54.4645 307.664 53.3732C309.887 50.212 313.783 49.7607 316.756 52.2447C317.45 52.8403 318.078 53.577 318.968 54.4729ZM407.426 91.0822C408.144 91.3198 408.761 91.6364 409.409 91.7057C410.161 91.7899 410.934 91.5989 411.699 91.623C415.561 91.7668 418.571 90.0332 421.033 87.2125C423.168 84.7714 423.216 82.8183 421.329 80.1277C420.831 79.4127 420.249 78.7661 419.735 78.0615C419.283 77.4366 418.803 76.8161 418.458 76.129C417.621 74.4399 418.167 73.0474 419.899 72.4019C420.615 72.1369 421.39 72.0399 422.126 71.8088C422.951 71.5535 423.771 71.2815 424.567 70.9367C425.468 70.5464 425.87 69.7777 425.705 68.8105C425.575 68.0544 425.398 67.2799 425.057 66.6041C424.545 65.5682 423.882 64.6038 423.263 63.6245C422.65 62.6399 421.981 61.6918 421.391 60.6915C420.559 59.2788 420.678 57.9138 421.765 56.6636C422.275 56.0814 422.821 55.5337 423.299 54.9226C424.709 53.1161 424.79 51.1698 423.689 49.2166C423.223 48.3868 422.574 47.6382 421.917 46.9391C420.525 45.444 418.863 44.2918 417.085 43.2953C416.496 42.9688 415.872 42.6962 415.312 42.3211C414.379 41.6996 414.292 40.7022 415.08 39.8381C415.406 39.4807 415.815 39.2149 416.151 38.8689C417.758 37.2081 418.028 35.617 416.869 33.5952C416.352 32.6916 415.629 31.8574 414.863 31.1486C412.059 28.5606 408.833 26.6853 405.153 25.6484C402.155 24.8035 402.128 24.7804 402.101 21.5322C402.084 19.1404 401.156 17.2325 399.379 15.6782C397.59 14.107 395.526 13.0331 393.232 12.6573C389.889 12.1083 386.672 12.3816 384.258 15.2648C384.137 15.4148 383.979 15.5357 383.843 15.6685C383.383 16.098 382.795 16.3237 382.278 15.9669C381.937 15.7328 381.711 15.2105 381.607 14.7758C381.499 14.3187 381.601 13.8146 381.614 13.3291C381.653 11.1825 380.649 9.55324 378.906 8.50839C377.773 7.8295 376.467 7.37587 375.182 7.05562C373.113 6.53934 370.985 6.68346 368.864 6.76716C365.977 6.88194 363.437 7.77777 361.146 9.58336C358.359 11.7784 358.014 11.6546 356.193 8.52483C354.572 5.73964 352.881 4.89012 349.709 5.44671C348.684 5.62799 347.632 5.9518 346.737 6.46942C343.67 8.25054 341.281 10.7537 339.67 13.9496C339.06 15.1574 338.564 16.3753 339.192 17.8299C339.573 18.7171 338.879 19.5573 337.923 19.6694C337.543 19.7155 337.158 19.6343 336.775 19.6471C334.665 19.7312 332.544 19.6934 330.461 19.9497C327.828 20.2732 325.488 21.381 323.554 23.2778C321.593 25.201 321.041 27.5819 321.361 30.2174C321.529 31.6542 322.364 32.7081 323.565 33.4669C324.585 34.1138 325.541 33.8801 326.556 33.3617C327.125 33.0744 327.846 32.9808 328.491 32.9891C329.07 32.995 329.676 33.3332 329.755 33.9768C329.804 34.3984 329.63 34.9218 329.392 35.2882C328.834 36.1501 327.953 36.5689 326.959 36.6686C326.251 36.7351 325.657 36.9551 325.198 37.5171C323.492 39.616 322.426 41.9991 322.588 44.7334C322.757 47.5729 324.049 48.8322 326.23 49.3031C327.684 49.6189 329.131 49.6914 330.468 49.0473C331.756 48.4233 332.964 47.6141 334.175 46.8436C334.741 46.4844 335.215 45.9726 335.781 45.619C336.617 45.099 337.655 45.6804 337.617 46.6619C337.588 47.4284 337.459 48.2131 337.234 48.9444C336.688 50.7402 336.579 52.5859 336.666 54.4227C336.862 58.4284 339.535 60.5916 343.452 60.0196C343.645 59.994 343.832 59.957 344.015 59.9033C346.83 59.0955 349.462 57.9657 351.354 55.5649C351.532 55.3399 351.672 54.9918 351.899 54.9122C352.321 54.7629 352.88 54.5912 353.223 54.7646C353.551 54.9264 353.819 55.4945 353.857 55.9102C353.9 56.3591 353.608 56.8338 353.541 57.3061C353.381 58.4542 353.101 59.614 353.161 60.754C353.41 65.7779 357.114 68.3178 361.753 66.614C363.362 66.0246 364.848 65.077 366.384 64.2749C366.808 64.0538 367.183 63.6983 367.626 63.5608C367.953 63.4575 368.494 63.4618 368.694 63.6684C368.983 63.9667 369.149 64.4812 369.187 64.9189C369.217 65.2735 368.93 65.6379 368.855 66.0106C368.631 67.145 368.302 68.2865 368.269 69.4283C368.178 72.8984 369.947 74.8278 373.401 75.2153C375.165 75.4161 376.849 75.1719 378.42 74.2939C379.096 73.9169 379.738 73.4612 380.448 73.196C380.831 73.0562 381.469 73.103 381.755 73.346C382.046 73.5947 382.144 74.1894 382.138 74.6309C382.136 75.1002 381.867 75.5592 381.799 76.0371C381.619 77.2837 381.347 78.5322 381.364 79.781C381.4 82.3834 382.239 84.7462 384.047 86.6551C385.981 88.7013 389.201 88.8811 391.382 87.1043C391.902 86.6771 392.301 86.1072 392.81 85.6685C393.636 84.966 394.71 85.2174 395.212 86.2198C395.471 86.7378 395.608 87.3119 395.856 87.8351C396.265 88.7124 396.629 89.6266 397.162 90.4148C398.803 92.8252 401.601 93.5906 404.293 92.4466C405.365 92.0242 406.407 91.5398 407.426 91.0822ZM324.156 51.3103C320.821 55.4999 318.362 60.6676 317.129 65.7999C315.369 73.1208 314.666 80.5543 315.114 88.0599C315.513 94.7243 317.043 101.129 320.602 106.866C323.686 111.845 327.374 116.212 332.282 119.572C337.132 122.89 342.26 125.386 347.959 126.677C353.04 127.835 358.175 128.447 363.392 128.633C368.997 128.833 374.302 127.746 379.399 125.513C385.314 122.92 390.302 118.998 394.749 114.327C397.692 111.238 400.172 107.772 402.573 104.264C404.602 101.305 406.342 98.1642 407.686 94.8199C407.844 94.4283 408.131 93.9314 407.424 93.5341C406.825 93.903 406.185 94.32 405.519 94.6974C404.406 95.3281 403.219 95.6246 401.924 95.5856C398.908 95.4856 396.579 94.164 394.921 91.6425C394.394 90.8379 393.945 89.9867 393.402 89.0545C392.748 89.4103 392.178 89.7251 391.597 90.0285C389.709 91.0268 387.78 91.1234 385.723 90.5524C383.418 89.911 381.868 88.4042 380.713 86.4323C379.523 84.3982 378.836 82.1959 378.864 79.7892C378.873 78.9833 379.225 78.0802 378.629 77.3724C377.092 77.5062 375.671 77.7661 374.249 77.7387C368.756 77.6258 366.145 75.1281 365.64 69.647C365.595 69.1261 365.483 68.6137 365.386 68.0025C364.01 68.5071 362.867 69.0593 361.664 69.3386C356.447 70.5617 353.009 68.518 351.292 63.962C351.025 63.2392 350.901 62.4669 350.712 61.714C350.597 61.2734 350.483 60.8327 350.322 60.1914C349.176 60.6827 348.225 61.0877 347.274 61.4983C345.109 62.4417 342.884 62.8417 340.513 62.4739C338.136 62.1059 336.452 60.8148 335.301 58.7546C334.431 57.1968 334.092 55.4939 334.145 53.7122C334.174 52.6807 334.181 51.6538 334.204 50.0642C330.857 52.1493 327.624 52.5876 324.156 51.3103ZM390.565 198.072C390.562 197.879 390.614 197.66 390.543 197.502C388.333 192.552 386.118 187.595 383.869 182.66C383.607 182.086 383.149 181.605 382.916 181.281C379.868 182.019 377.102 182.934 374.269 183.338C363.801 184.838 353.346 184.025 342.909 182.882C341.106 182.685 339.311 182.417 337.378 182.166C336.745 183.4 336.156 184.498 335.609 185.62C334.301 188.326 333.015 191.037 331.723 193.748C331.181 194.887 330.607 196.013 330.124 197.176C329.834 197.883 329.586 198.641 330.164 199.674C332.508 200.461 335.027 201.392 337.596 202.148C340.387 202.969 340.815 202.786 342.148 200.143C343.671 197.115 345.039 194.014 346.47 190.939C346.673 190.499 346.817 190.035 347.036 189.602C347.622 188.454 348.49 188.09 349.631 188.427C351.01 188.828 352.44 189.071 353.858 189.303C356.131 189.678 358.423 189.965 360.701 190.329C364.871 190.993 369.021 191.882 373.286 191.512C373.764 191.469 374.248 191.532 374.728 191.567C376.524 191.681 376.853 191.926 377.378 193.63C377.782 194.927 378.108 196.248 378.54 197.53C378.879 198.537 379.266 199.546 379.755 200.487C380.468 201.873 381.324 202.204 382.863 201.883C384.69 201.479 388.844 199.436 390.565 198.072ZM336.24 167.609C337.593 168.826 339.173 168.849 340.67 169.039C347.149 169.858 353.628 170.65 360.108 171.403C367.82 172.298 375.403 171.84 382.766 169.165C382.562 166.103 381.209 160.352 380.309 158.577C378.129 158.94 375.98 159.459 373.808 159.618C370.928 159.827 368.076 160.17 365.261 160.801C363.269 161.248 361.261 161.254 359.246 161.176C353.183 160.919 347.195 160.169 341.348 158.457C340.152 158.107 338.955 157.796 337.482 157.993C336.915 161.19 336.239 164.378 336.24 167.609ZM338.003 154.832C338.368 155.017 338.602 155.192 338.862 155.257C344.625 156.734 350.416 158.079 356.378 158.513C359.744 158.76 363.055 158.722 366.392 158.006C368.913 157.468 371.519 157.276 374.097 157.089C375.655 156.973 377.138 156.676 378.577 156.125C379.071 155.934 379.486 155.525 379.952 155.211C379.307 152.663 378.943 150.186 377.993 147.879C374.129 147.929 370.402 147.967 366.669 148.027C366.094 148.038 365.521 148.137 364.954 148.237C360.748 148.93 356.549 148.85 352.338 148.262C348.078 147.661 343.802 147.187 339.245 146.619C338.658 149.363 338.192 152.073 338.003 154.832ZM335.222 178.791C336.327 179.088 337.234 179.399 338.163 179.573C343.083 180.497 348.06 180.955 353.053 181.27C359.781 181.701 366.51 181.851 373.208 180.928C375.199 180.651 377.211 180.276 379.102 179.615C383.693 178.009 384.195 178.199 383.419 172.509C383.411 172.426 383.31 172.356 383.159 172.167C382.188 172.091 381.202 172.407 380.196 172.682C376.276 173.751 372.265 174.347 368.224 174.29C364.189 174.239 360.153 173.94 356.137 173.514C350.591 172.929 345.069 172.136 339.539 171.414C338.32 171.257 337.114 171.028 335.782 170.811C335.31 173.416 335.159 175.9 335.222 178.791ZM438.425 100.758C436.069 101.423 434.993 102.353 434.154 104.386C433.931 104.913 433.794 105.493 433.513 105.985C433.108 106.693 431.944 106.664 431.606 105.922C431.339 105.316 431.262 104.628 431.046 103.996C430.475 102.355 429.887 100.709 428.045 99.8371C427.697 100.205 427.308 100.504 427.079 100.899C426.435 101.989 426.094 103.186 425.918 104.46C425.216 109.475 427.322 113.709 429.467 117.945C429.594 118.198 429.81 118.411 429.999 118.628C431.748 120.65 433.894 122.009 436.439 122.831C437.909 123.302 439.058 123.148 440.07 121.878C439.935 121.541 439.846 121.151 439.645 120.834C439.284 120.263 438.822 119.759 438.467 119.187C438.014 118.457 438.29 117.535 439.072 117.256C439.699 117.031 440.39 116.997 441.021 116.795C441.902 116.509 442.983 116.706 443.65 115.721C443.46 114.852 442.693 114.59 442.021 114.294C441.23 113.948 440.361 113.782 439.588 113.405C439.212 113.219 438.835 112.773 438.72 112.366C438.536 111.746 438.96 111.26 439.491 110.96C440.078 110.624 440.691 110.344 441.283 110.024C442.328 109.463 443.189 108.69 443.68 107.593C443.95 106.991 444.157 106.303 443.348 105.703C442.869 105.8 442.281 105.849 441.759 106.05C440.865 106.396 440.03 106.911 439.127 107.224C438.738 107.358 438.155 107.313 437.807 107.106C437.257 106.77 437.227 106.123 437.463 105.547C437.711 104.921 438.073 104.339 438.338 103.714C438.717 102.823 439.021 101.902 438.425 100.758ZM286.845 77.6894C286.631 79.255 286.553 79.2906 286.924 80.1775C287.514 81.5975 288.199 82.977 288.874 84.3615C289.158 84.9358 289.235 85.48 288.763 85.9532C288.308 86.405 287.77 86.456 287.185 86.1462C286.676 85.878 286.169 85.5547 285.621 85.4231C284.792 85.2198 283.928 85.076 283.081 85.0598C282.217 85.043 281.711 85.6695 281.387 86.4246C281.063 87.1686 281.401 87.7615 281.907 88.2395C282.319 88.6309 282.822 88.9265 283.296 89.2485C283.611 89.4595 283.977 89.6062 284.247 89.8541C284.823 90.3789 284.53 91.577 283.774 91.741C282.947 91.9244 282.045 91.8951 281.278 92.2133C280.855 92.3847 280.463 93.0488 280.384 93.5428C280.334 93.8556 280.823 94.366 281.185 94.6175C282.192 95.3081 283.363 95.3091 284.518 95.1439C285.079 95.0662 285.614 94.7998 286.172 94.6667C286.752 94.529 287.398 94.5153 287.697 95.1122C287.885 95.4895 287.892 96.031 287.799 96.4581C287.699 96.9126 287.35 97.3133 287.185 97.7597C286.965 98.3587 286.82 98.9882 286.625 99.6543C287.062 99.7983 287.329 99.9687 287.587 99.9621C291.251 99.8387 294.593 97.1515 295.498 93.5528C295.653 92.9513 295.795 92.3825 296.362 92.1559C297.562 91.6777 298.105 90.666 298.546 89.5786C299.442 87.338 300.382 85.1047 301.122 82.8084C301.464 81.7337 301.445 80.5236 301.462 79.3701C301.475 78.6306 300.847 78.17 300.108 78.1691C297.948 78.1684 295.968 79.8479 295.678 81.9794C295.601 82.5452 295.693 83.1342 295.676 83.7134C295.663 84.3424 295.451 84.8699 294.763 84.9868C294.108 85.094 293.657 84.7232 293.355 84.1869C293.068 83.6843 292.887 83.1251 292.595 82.6223C291.26 80.3617 289.02 78.4527 286.845 77.6894ZM376.434 139.226C375.341 139.344 374.295 139.381 373.28 139.59C371.461 139.956 369.665 139.865 367.84 139.662C366.32 139.492 364.779 139.455 363.253 139.462C356.145 139.513 349.031 139.696 342.083 137.743C341.672 137.628 341.196 137.748 340.654 137.76C340.352 139.786 339.81 141.626 339.831 143.637C341.215 144.348 342.624 144.557 344.051 144.717C347.961 145.155 351.88 145.544 355.783 146.032C358.386 146.354 360.957 146.066 363.54 145.885C366.409 145.681 369.282 145.521 372.154 145.384C373.398 145.321 374.652 145.42 375.897 145.346C376.423 145.317 376.933 145.022 377.576 144.804C377.185 142.889 377.283 141.043 376.434 139.226ZM375.921 136.384C375.402 134.238 374.895 132.22 373.981 130.246C363.288 132.179 352.929 130.724 342.615 127.951C341.55 130.163 341.645 132.381 341.288 134.537C342.927 135.573 344.648 135.783 346.321 136.09C351.252 137.01 356.235 137.037 361.233 136.938C363.91 136.886 366.595 137.062 369.269 137.221C371.496 137.356 373.644 137.119 375.921 136.384ZM312.484 75.1519C312.673 74.9328 312.842 74.8068 312.914 74.6439C313.029 74.3777 313.105 74.0935 313.144 73.8079C313.781 68.7906 314.797 63.8708 316.594 59.1193C317.514 56.6864 316.09 54.1904 313.599 53.3928C312.275 52.9661 311.133 53.2312 310.169 54.2376C309.143 55.3135 308.54 56.6265 308.135 58.0412C307.541 60.1167 307.398 62.2539 307.512 64.3899C307.651 67.0239 308.219 69.5862 309.419 71.9519C310.11 73.3151 310.895 74.6597 312.484 75.1519ZM298.474 211.007C298.468 211.145 298.455 211.337 298.453 211.531C298.423 212.893 298.882 214.032 300.109 214.698C301.32 215.358 302.503 215.177 303.638 214.387C306.186 212.597 307.955 210.269 308.66 207.176C308.877 206.229 309.034 205.274 309.279 204.334C309.51 203.437 309.454 202.623 308.949 201.825C308.588 201.253 308.272 200.65 307.99 200.032C307.566 199.115 306.85 198.8 305.898 198.819C304.672 198.843 303.65 199.229 302.941 200.311C301.127 203.08 299.694 206.034 298.789 209.23C298.625 209.787 298.58 210.376 298.474 211.007ZM403.333 107.949C407.518 107.807 410.864 106.849 413.882 104.773C415.091 103.942 416.046 102.858 416.774 101.577C417.056 101.08 417.301 100.532 417.437 99.9793C417.933 97.9165 417.286 96.544 415.328 95.8222C413.807 95.2553 412.204 94.9835 410.475 95.1265C409.409 97.228 408.426 99.316 407.303 101.327C406.139 103.425 404.841 105.451 403.333 107.949ZM415.256 205.935C413.837 206.272 413.402 207.051 413.529 208.149C413.941 211.633 414.856 214.987 416.292 218.179C416.518 218.691 416.922 219.143 417.328 219.539C417.823 220.028 418.704 220.04 419.155 219.533C419.596 219.042 420.083 218.475 420.232 217.868C420.51 216.752 420.627 215.58 420.682 214.428C420.787 212.284 420.082 210.435 418.487 208.959C417.43 207.98 416.38 206.995 415.256 205.935Z" fill="#6B4434"/>
<path fill-rule="evenodd" clip-rule="evenodd" d="M339.63 97.4722C339.844 95.4648 340.015 93.4503 340.311 91.4516C340.356 91.1385 341.043 90.6405 341.347 90.6964C346.54 91.6372 351.831 92.035 356.927 93.5243C358.771 94.065 360.61 94.6165 362.442 95.1899C363.08 95.3913 363.722 95.6149 364.324 95.9087C366.46 96.9578 367.064 98.1795 366.115 100.379C364.806 103.394 363.436 106.406 361.768 109.224C359.117 113.705 355.017 115.341 349.946 114.626C345.762 114.039 341.546 110.181 340.493 105.844C339.822 103.112 339.537 100.313 339.63 97.4722ZM363.82 98.6063C363.327 98.3332 362.939 98.0366 362.502 97.8871C356.483 95.7989 350.318 94.3788 343.98 93.7582C343.037 93.6665 342.547 94.0452 342.447 95.0685C342.136 98.1655 342.126 101.252 342.718 104.334C343.401 107.901 345.538 110.198 348.688 111.645C351.257 112.821 356.007 112.651 358.639 109.235C359.284 108.399 359.941 107.541 360.426 106.598C361.532 104.449 362.552 102.252 363.567 100.054C363.758 99.6476 363.734 99.1386 363.82 98.6063Z" fill="#6B4434"/>
<path fill-rule="evenodd" clip-rule="evenodd" d="M363.82 98.6068C363.734 99.1392 363.758 99.6482 363.567 100.055C362.552 102.252 361.532 104.444 360.425 106.599C359.941 107.536 359.284 108.394 358.639 109.236C356.007 112.652 351.251 112.827 348.688 111.645C345.538 110.198 343.4 107.901 342.718 104.335C342.126 101.253 342.136 98.1661 342.447 95.069C342.552 94.046 343.037 93.6671 343.98 93.7588C350.318 94.3794 356.483 95.7995 362.502 97.8877C362.939 98.0427 363.327 98.3338 363.82 98.6068Z" fill="#FFF2E1"/>
<path fill-rule="evenodd" clip-rule="evenodd" d="M337.665 77.5438C337.573 80.191 335.726 82.2733 333.448 82.4613C331.939 82.5852 330.831 81.9515 330.122 80.6373C329.167 78.8774 329.79 75.4777 331.318 74.1728C332.506 73.1529 333.917 72.8816 335.374 73.3908C336.67 73.8385 337.318 74.9128 337.529 76.2463C337.598 76.7239 337.628 77.211 337.665 77.5438Z" fill="#6B4434"/>
<path fill-rule="evenodd" clip-rule="evenodd" d="M375.06 92.6908C375.302 90.6845 377.14 89.3971 379.283 89.7284C381.311 90.0443 382.827 92.3008 382.506 94.525C382.273 96.1616 379.961 97.8063 378.179 97.6214C376.386 97.4361 374.788 94.9113 375.06 92.6908Z" fill="#6B4434"/>
</svg>
