<svg width="240" height="85" viewBox="0 0 240 85" fill="none" xmlns="http://www.w3.org/2000/svg">
<path fill-rule="evenodd" clip-rule="evenodd" d="M105.488 33.7864C103.168 33.7864 100.414 34.2783 97.4059 37.7662V28.0051C97.4059 25.5392 95.4046 23.5333 92.9443 23.5333C90.484 23.5333 88.4827 25.5392 88.4827 28.0051V59.8375C88.4827 62.3033 90.484 64.3092 92.9443 64.3092C95.4046 64.3092 97.4059 62.3033 97.4059 59.8375V47.4827C97.4059 43.9309 99.0886 41.9697 102.154 41.9697C105.156 41.9697 106.737 43.8734 106.737 47.4827V59.8375C106.737 62.3033 108.738 64.3092 111.199 64.3092C113.659 64.3092 115.66 62.3033 115.66 59.8375V44.8891C115.654 37.9387 111.855 33.7864 105.488 33.7864ZM131.111 34.0037C127.478 34.0037 124.597 34.4764 121.773 35.5369C120.307 36.0863 119.326 37.5044 119.326 39.0632C119.326 41.1457 120.977 42.7747 123.086 42.7747C123.52 42.7747 123.883 42.7108 124.38 42.5447C126.095 42.0081 127.905 41.7526 129.925 41.7526C134.718 41.7526 135.738 44.4037 135.751 46.646C134.087 46.103 131.99 45.6047 129.065 45.6047C121.442 45.6047 117.069 49.099 117.069 55.1998V55.3084C117.069 60.8214 121.2 64.5266 127.344 64.5266C130.805 64.5266 133.578 63.4725 135.789 61.3133C136.165 62.8912 137.676 64.3157 139.996 64.3157C142.437 64.3157 144.349 62.4248 144.349 60.0101V46.8312C144.349 42.6853 143.266 39.4912 141.118 37.3447C138.9 35.128 135.534 34.0037 131.111 34.0037ZM129.817 58.1192C127.287 58.1192 125.719 56.9182 125.719 54.9826V54.874C125.719 52.5678 127.644 51.2519 131.003 51.2519C132.723 51.2519 134.438 51.5904 135.859 52.2037V53.4238C135.859 56.1836 133.374 58.1192 129.817 58.1192ZM156.306 37.8433C158.613 35.1155 161.456 33.7867 164.974 33.7867C171.686 33.7867 178.474 39.0442 178.474 49.0993V49.2079C178.474 53.8393 177.053 57.7617 174.369 60.5597C171.915 63.1214 168.582 64.5268 164.974 64.5268C161.501 64.5268 158.741 63.3386 156.351 60.8089V68.4747C156.351 70.9405 154.349 72.9464 151.889 72.9464C149.429 72.9464 147.427 70.9405 147.427 68.4747V38.4757C147.427 36.0098 149.429 34.0039 151.889 34.0039C154.139 34.0039 156 35.6777 156.306 37.8433ZM169.557 49.0993C169.557 44.7617 166.683 41.4845 162.871 41.4845C159.034 41.4845 156.242 44.685 156.242 49.0993V49.2079C156.242 53.6221 159.028 56.8226 162.871 56.8226C166.746 56.8226 169.557 53.6221 169.557 49.2079V49.0993ZM198.08 33.7867C194.561 33.7867 191.719 35.1155 189.411 37.8433C189.105 35.6777 187.244 34.0039 184.994 34.0039C182.534 34.0039 180.533 36.0098 180.533 38.4757V68.4747C180.533 70.9405 182.534 72.9464 184.994 72.9464C187.455 72.9464 189.456 70.9405 189.456 68.4747V60.8089C191.846 63.3386 194.606 64.5268 198.08 64.5268C201.687 64.5268 205.021 63.1214 207.475 60.5597C210.158 57.7617 211.579 53.8393 211.579 49.2079V49.0993C211.579 39.0442 204.791 33.7867 198.08 33.7867ZM195.976 41.4845C199.788 41.4845 202.662 44.7617 202.662 49.0993V49.2079C202.662 53.6221 199.852 56.8226 195.976 56.8226C192.133 56.8226 189.348 53.6221 189.348 49.2079V49.0993C189.348 44.685 192.139 41.4845 195.976 41.4845ZM231.485 37.3768C232.313 35.1664 233.792 34.0038 235.761 34.0038C238.139 34.0038 240.006 35.8244 240 38.137C240 38.8077 239.783 39.7787 239.592 40.2259L229.528 64.45C226.998 70.589 224.359 72.7674 219.445 72.7674C217.711 72.7674 216.379 72.5374 214.849 71.9881C213.797 71.6048 212.026 70.6082 212.026 68.2446C212.026 65.9193 213.855 64.533 215.62 64.533C216.321 64.533 216.742 64.6544 217.08 64.7694C217.775 64.9866 218.157 65.076 218.686 65.076C220.025 65.076 220.586 64.8588 221.261 63.562L221.465 63.0765L211.675 40.3409C211.452 39.7787 211.216 38.9099 211.216 38.303C211.216 35.85 213.109 33.9974 215.62 33.9974C217.692 33.9974 219.094 35.0834 219.897 37.3193L225.793 53.2067L231.485 37.3768Z" fill="white"/>
<path d="M63.9739 29.7786V55.9078C63.9739 66.2784 55.5339 74.6863 45.1237 74.6863H43.217L33.4805 84.3795C33.0992 84.7594 32.5717 85 31.987 85C31.4467 85 30.9574 84.8037 30.5824 84.4745L30.4172 84.3099L30.4108 84.3036L20.7569 74.6863H18.8439C8.44003 74.6863 0 66.2784 0 55.9078C0 45.7037 0 39.9827 0 29.7786C0 19.4079 8.44003 11 18.8503 11H45.1237C55.5339 11 63.9739 19.4079 63.9739 29.7786Z" fill="#D6C69B"/>
<path d="M14.895 47.197C13.0392 47.197 11.9814 49.3036 13.0582 50.8248C17.2449 56.7501 24.1677 60.6133 31.99 60.6133C39.8123 60.6133 46.7289 56.7437 50.9155 50.8248C51.9923 49.3036 50.9345 47.197 49.0787 47.197H14.895Z" fill="white"/>
<path d="M0 0L9.5 11H54.5L64 0V40H0V0Z" fill="#242424"/>
<path d="M26.1982 35.2524H15V29.6262C15 26.5203 17.5082 24 20.5991 24C23.69 24 26.1982 26.5203 26.1982 29.6262V35.2524Z" fill="white"/>
<path d="M49.849 35.2524H38.6508V29.6262C38.6508 26.5204 41.159 24 44.2499 24C47.3408 24 49.849 26.5204 49.849 29.6262V35.2524Z" fill="white"/>
</svg>
