<svg width="64" height="85" viewBox="0 0 64 85" fill="none" xmlns="http://www.w3.org/2000/svg">
<path d="M63.9739 29.7786V55.9078C63.9739 66.2784 55.5339 74.6863 45.1237 74.6863H43.217L33.4805 84.3795C33.0992 84.7594 32.5717 85 31.987 85C31.4467 85 30.9574 84.8037 30.5824 84.4745L30.4172 84.3099L30.4108 84.3036L20.7569 74.6863H18.8439C8.44003 74.6863 0 66.2784 0 55.9078C0 45.7037 0 39.9827 0 29.7786C0 19.4079 8.44003 11 18.8503 11H45.1237C55.5339 11 63.9739 19.4079 63.9739 29.7786Z" fill="#D6C69B"/>
<path d="M14.895 47.197C13.0392 47.197 11.9814 49.3036 13.0582 50.8248C17.2449 56.7501 24.1677 60.6133 31.99 60.6133C39.8123 60.6133 46.7289 56.7437 50.9155 50.8248C51.9923 49.3036 50.9345 47.197 49.0787 47.197H14.895Z" fill="white"/>
<path d="M0 0L9.5 11H54.5L64 0V40H0V0Z" fill="#242424"/>
<path d="M26.1982 35.2524H15V29.6262C15 26.5203 17.5082 24 20.5991 24C23.69 24 26.1982 26.5203 26.1982 29.6262V35.2524Z" fill="white"/>
<path d="M49.849 35.2524H38.6508V29.6262C38.6508 26.5204 41.159 24 44.2499 24C47.3408 24 49.849 26.5204 49.849 29.6262V35.2524Z" fill="white"/>
</svg>
