<svg width="66" height="85" viewBox="0 0 66 85" fill="none" xmlns="http://www.w3.org/2000/svg">
<path d="M64.9739 29.7786V55.9078C64.9739 66.2784 56.5339 74.6863 46.1237 74.6863H44.217L34.4805 84.3795C34.0992 84.7594 33.5717 85 32.987 85C32.4467 85 31.9574 84.8037 31.5824 84.4745L31.4172 84.3099L31.4108 84.3036L21.7569 74.6863H19.8439C9.44003 74.6863 1 66.2784 1 55.9078C1 45.7037 1 39.9827 1 29.7786C1 19.4079 9.44003 11 19.8503 11H46.1237C56.5339 11 64.9739 19.4079 64.9739 29.7786Z" fill="#D6C69B"/>
<path d="M15.895 47.197C14.0392 47.197 12.9814 49.3036 14.0582 50.8248C18.2449 56.7501 25.1677 60.6133 32.99 60.6133C40.8123 60.6133 47.7289 56.7437 51.9155 50.8248C52.9923 49.3036 51.9345 47.197 50.0787 47.197H15.895Z" fill="white"/>
<path d="M0.765296 0L9.5 10H56.5L65.2125 0V40H0.765296V0Z" fill="#242424"/>
<path d="M27.1982 35.2524H16V29.6262C16 26.5203 18.5082 24 21.5991 24C24.69 24 27.1982 26.5203 27.1982 29.6262V35.2524Z" fill="white"/>
<path d="M50.849 35.2524H39.6508V29.6262C39.6508 26.5204 42.159 24 45.2499 24C48.3408 24 50.849 26.5204 50.849 29.6262V35.2524Z" fill="white"/>
</svg>
